<svg xmlns="http://www.w3.org/2000/svg" width="112.364" height="45.198" viewBox="0 0 112.364 45.198">
  <g id="iBox-Logo" transform="translate(-0.687 -0.197)">
    <path id="Path_21291" data-name="Path 21291" d="M50.829,27.9A1.894,1.894,0,0,0,51.8,26.27l.088-6.954a3.434,3.434,0,0,0-1.7-3L34.919,7.391,31.106,9.606,47.05,18.92a2.159,2.159,0,0,1,1.066,1.853l.015,8.624,2.7-1.5Z" transform="translate(-5.693 -1.346)" fill="#06f"/>
    <path id="Path_21292" data-name="Path 21292" d="M40.1,5.885a1.894,1.894,0,0,0-.923-1.654L33.2.678A3.434,3.434,0,0,0,29.751.647L14.391,9.411l.012,4.41L30.44,4.67a2.159,2.159,0,0,1,2.138,0l7.476,4.3.05-3.088Z" transform="translate(-2.565 0)" fill="#06f"/>
    <path id="Path_21293" data-name="Path 21293" d="M17.076,2.516a1.894,1.894,0,0,0-1.894-.027l-6.067,3.4A3.434,3.434,0,0,0,7.363,8.862l-.09,17.685L11.1,28.741l.093-18.465a2.159,2.159,0,0,1,1.072-1.85L19.725,4.1,17.076,2.514Z" transform="translate(-1.233 -0.384)" fill="#06f"/>
    <path id="Path_21294" data-name="Path 21294" d="M1.745,23.037a1.894,1.894,0,0,0-.971,1.626L.687,31.617a3.435,3.435,0,0,0,1.7,3l15.271,8.92,3.813-2.215L5.524,32.013A2.159,2.159,0,0,1,4.458,30.16l-.015-8.624-2.7,1.5Z" transform="translate(0 -3.994)" fill="#06f"/>
    <path id="Path_21295" data-name="Path 21295" d="M11.335,46.978a1.894,1.894,0,0,0,.923,1.654l5.979,3.553a3.434,3.434,0,0,0,3.451.031l15.36-8.765-.012-4.41L21,48.193a2.159,2.159,0,0,1-2.138,0l-7.476-4.3-.05,3.088Z" transform="translate(-1.993 -7.27)" fill="#06f"/>
    <path id="Path_21296" data-name="Path 21296" d="M37.416,47.384a1.894,1.894,0,0,0,1.894.027l6.067-3.4a3.434,3.434,0,0,0,1.753-2.973l.089-17.685-3.825-2.194L43.3,39.623a2.159,2.159,0,0,1-1.072,1.85L34.767,45.8l2.649,1.587Z" transform="translate(-6.378 -3.923)" fill="#06f"/>
    <path id="Path_21297" data-name="Path 21297" d="M74.229,20.56V17.443h2.325V20.56Zm0,15.327V22.067h2.325v13.82Z" transform="translate(-13.764 -3.228)" fill="#06f"/>
    <path id="Path_21298" data-name="Path 21298" d="M82.551,35.65V16.174H92.989l2.748,2.775V23.52l-1.216,1.639,2.246,2.273v5.444L93.993,35.65Zm2.4-11.31h7.267l1.11-1.507V19.768l-1.427-1.48-6.949.027v6.025Zm0,9.17H92.91l1.453-1.453v-3.99l-1.532-1.586H84.957V33.51Z" transform="translate(-15.321 -2.99)" fill="#06f"/>
    <path id="Path_21299" data-name="Path 21299" d="M107.205,36.952l-2.774-2.775V25.907l2.774-2.775h6.553l2.775,2.775v8.271l-2.775,2.775Zm1-1.85h4.545l1.453-1.453-.027-7.214-1.427-1.453h-4.545l-1.453,1.453v7.214Z" transform="translate(-19.416 -4.292)" fill="#06f"/>
    <path id="Path_21300" data-name="Path 21300" d="M121.661,36.952l4.888-7.108-4.862-6.712h2.748l3.937,5.6h.607l3.937-5.6h2.774l-4.862,6.712,4.862,7.108h-2.828l-3.911-5.972h-.581l-3.859,5.972h-2.852Z" transform="translate(-22.641 -4.292)" fill="#06f"/>
  </g>
</svg>
