<svg id="iBox-Logo" xmlns="http://www.w3.org/2000/svg" width="557.675" height="99.775" viewBox="0 0 557.675 99.775">
  <path id="Path_21778" data-name="Path 21778" d="M74.645,52.655a4.181,4.181,0,0,0,2.143-3.59l.194-15.352a7.581,7.581,0,0,0-3.749-6.632L39.522,7.391l-8.417,4.89L66.3,32.84a4.766,4.766,0,0,1,2.353,4.091l.033,19.037,5.959-3.312Z" transform="translate(23.477 5.517)" fill="#06f"/>
  <path id="Path_21779" data-name="Path 21779" d="M71.151,12.753A4.181,4.181,0,0,0,69.114,9.1l-13.2-7.844A7.581,7.581,0,0,0,48.3,1.189L14.391,20.537l.027,9.734,35.4-20.2a4.766,4.766,0,0,1,4.72.007l16.5,9.49.111-6.816Z" transform="translate(10.199 -0.197)" fill="#06f"/>
  <path id="Path_21780" data-name="Path 21780" d="M28.912,2.839a4.181,4.181,0,0,0-4.18-.061L11.34,10.286a7.581,7.581,0,0,0-3.869,6.563l-.2,39.039,8.443,4.844.206-40.76a4.766,4.766,0,0,1,2.366-4.084L34.76,6.34l-5.848-3.5Z" transform="translate(4.546 1.432)" fill="#06f"/>
  <path id="Path_21781" data-name="Path 21781" d="M3.023,24.85a4.181,4.181,0,0,0-2.143,3.59L.687,43.791a7.582,7.582,0,0,0,3.749,6.632l33.71,19.69,8.417-4.89-35.2-20.559a4.766,4.766,0,0,1-2.353-4.091L8.98,21.536,3.021,24.848Z" transform="translate(-0.687 16.753)" fill="#06f"/>
  <path id="Path_21782" data-name="Path 21782" d="M11.337,56.561a4.181,4.181,0,0,0,2.037,3.65l13.2,7.843a7.58,7.58,0,0,0,7.618.069L68.1,48.776l-.027-9.734-35.4,20.2a4.766,4.766,0,0,1-4.72-.007l-16.5-9.49-.111,6.816Z" transform="translate(7.771 30.659)" fill="#06f"/>
  <path id="Path_21783" data-name="Path 21783" d="M40.615,79.051a4.181,4.181,0,0,0,4.18.061L58.187,71.6a7.581,7.581,0,0,0,3.869-6.563L62.253,26,53.81,21.159,53.6,61.919A4.766,4.766,0,0,1,51.237,66L34.767,75.55l5.848,3.5Z" transform="translate(26.386 16.453)" fill="#06f"/>
  <path id="Path_21784" data-name="Path 21784" d="M74.229,24.325V17.443h5.132v6.882Zm0,33.833V27.651h5.132V58.159Z" transform="translate(57.732 13.502)" fill="#06f"/>
  <path id="Path_21785" data-name="Path 21785" d="M82.551,59.166V16.174h23.042l6.066,6.125V32.39l-2.684,3.618,4.959,5.017V53.041l-6.126,6.125ZM87.86,34.2H103.9l2.451-3.326V24.108l-3.15-3.267L87.862,20.9V34.2Zm0,20.242h17.559l3.208-3.208V42.426l-3.382-3.5H87.862V54.443Z" transform="translate(64.343 12.494)" fill="#06f"/>
  <path id="Path_21786" data-name="Path 21786" d="M110.555,53.639l-6.124-6.125V29.257l6.124-6.125h14.466l6.126,6.125V47.514l-6.126,6.125Zm2.216-4.083h10.034l3.208-3.208-.059-15.924-3.149-3.208H112.771l-3.208,3.208V46.348Z" transform="translate(81.723 18.021)" fill="#06f"/>
  <path id="Path_21787" data-name="Path 21787" d="M121.663,53.639l10.791-15.691L121.72,23.132h6.067L136.479,35.5h1.34l8.692-12.368h6.124L141.9,37.948l10.732,15.691h-6.243L137.76,40.455h-1.283l-8.518,13.184h-6.3Z" transform="translate(95.408 18.021)" fill="#06f"/>
  <path id="Path_21788" data-name="Path 21788" d="M149.423,59.166V16.174h5.31V34.2h21.292V16.174h5.309V59.166h-5.309V38.924H154.732V59.166Z" transform="translate(117.463 12.494)" fill="#06f"/>
  <path id="Path_21789" data-name="Path 21789" d="M178.4,53.639l-6.124-6.125V29.257l6.124-6.125h13.592l6.124,6.125V40.281H177.409v5.892l3.208,3.208h16.976v4.257ZM177.409,36.2h15.577V30.424l-3.208-3.208h-9.16l-3.208,3.208Z" transform="translate(135.617 18.021)" fill="#06f"/>
  <path id="Path_21790" data-name="Path 21790" d="M195.38,53.639l-6.067-6.125V40.573l6.067-6.125H210.9V30.656l-3.149-3.208H193.28V23.132h16.684l6.067,6.125V53.639H210.9V48.914l-4.726,4.726Zm9.506-4.083,6.007-5.951V38.473l-13.242.059-3.208,3.149v4.667l3.208,3.208Z" transform="translate(149.149 18.021)" fill="#06f"/>
  <path id="Path_21791" data-name="Path 21791" d="M209.37,59.166V16.174H214.5V59.166Z" transform="translate(165.082 12.494)" fill="#06f"/>
  <path id="Path_21792" data-name="Path 21792" d="M224.512,57.1l-5.367-5.309V30.674h-3.208V26.591h3.325l1.285-7.816h3.732v7.816h6.476v4.083h-6.476V49.983l2.744,2.858H232.1V57.1h-7.585Z" transform="translate(170.298 14.56)" fill="#06f"/>
  <path id="Path_21793" data-name="Path 21793" d="M228.421,59.166V16.174h5.134V33.5l4.665-4.841h11.258l6.067,6.125V59.166h-5.134v-23.1l-3.09-3.326h-7.757l-6.007,6.125v20.3h-5.132Z" transform="translate(180.215 12.494)" fill="#06f"/>
  <path id="Path_21794" data-name="Path 21794" d="M254.442,53.639l-6.126-6.125V29.257l6.126-6.125h13.94l5.367,5.309v4.841h-5.132V30.132L265.7,27.215H256.66l-3.208,3.208V46.115l3.208,3.267h16.8v4.257Z" transform="translate(196.019 18.021)" fill="#06f"/>
  <path id="Path_21795" data-name="Path 21795" d="M270.639,53.639l-6.067-6.125V40.573l6.067-6.125h15.518V30.656l-3.151-3.208H268.541V23.132h16.682l6.067,6.125V53.639h-5.132V48.914l-4.726,4.726Zm9.507-4.083,6.008-5.951V38.473l-13.242.059L269.7,41.681v4.667l3.208,3.208Z" transform="translate(208.932 18.021)" fill="#06f"/>
  <path id="Path_21796" data-name="Path 21796" d="M284.63,53.639V23.132h5.132v5.483l5.31-5.483h7.816v5.132H295.3l-5.541,5.716V53.639Z" transform="translate(224.865 18.021)" fill="#06f"/>
  <path id="Path_21797" data-name="Path 21797" d="M303.206,53.639l-6.126-6.125V29.257l6.126-6.125H316.8l6.124,6.125V40.281H302.212v5.892l3.208,3.208H322.4v4.257ZM302.212,36.2h15.577V30.424l-3.208-3.208h-9.16l-3.208,3.208Z" transform="translate(234.754 18.021)" fill="#06f"/>
</svg>
