<svg xmlns="http://www.w3.org/2000/svg" width="118.43" height="117.624" viewBox="0 0 118.43 117.624">
  <g id="iBox-Logo" transform="translate(-0.687 -0.197)">
    <path id="Path_21291" data-name="Path 21291" d="M82.433,60.752a4.929,4.929,0,0,0,2.526-4.232l.228-18.1a8.938,8.938,0,0,0-4.42-7.819L41.028,7.391l-9.922,5.765L72.6,37.393a5.618,5.618,0,0,1,2.774,4.823l.039,22.443,7.025-3.9Z" transform="translate(33.928 8.024)" fill="#06f"/>
    <path id="Path_21292" data-name="Path 21292" d="M81.305,15a4.929,4.929,0,0,0-2.4-4.3L63.344,1.449a8.938,8.938,0,0,0-8.981-.082L14.39,24.176l.032,11.476L56.158,11.836a5.618,5.618,0,0,1,5.564.009L81.177,23.033,81.308,15Z" transform="translate(15.285 0)" fill="#06f"/>
    <path id="Path_21293" data-name="Path 21293" d="M32.783,2.944a4.929,4.929,0,0,0-4.928-.072L12.068,11.724a8.938,8.938,0,0,0-4.561,7.737L7.274,65.483l9.954,5.711.243-48.052a5.618,5.618,0,0,1,2.79-4.814L39.677,7.072,32.783,2.941Z" transform="translate(7.347 2.287)" fill="#06f"/>
    <path id="Path_21294" data-name="Path 21294" d="M3.441,25.442A4.929,4.929,0,0,0,.916,29.674l-.228,18.1a8.938,8.938,0,0,0,4.42,7.819L44.847,78.8l9.922-5.765L13.277,48.8A5.618,5.618,0,0,1,10.5,43.979l-.039-22.443-7.025,3.9Z" transform="translate(0 23.8)" fill="#06f"/>
    <path id="Path_21295" data-name="Path 21295" d="M11.337,59.695a4.929,4.929,0,0,0,2.4,4.3L29.3,73.245a8.937,8.937,0,0,0,8.981.082L78.252,50.517,78.22,39.042,36.485,62.857a5.618,5.618,0,0,1-5.564-.009L11.465,51.661,11.334,59.7Z" transform="translate(11.876 43.325)" fill="#06f"/>
    <path id="Path_21296" data-name="Path 21296" d="M41.661,89.408a4.929,4.929,0,0,0,4.928.071l15.787-8.851a8.937,8.937,0,0,0,4.561-7.737l.233-46.022-9.954-5.71-.243,48.052a5.618,5.618,0,0,1-2.79,4.814L34.767,85.28l6.894,4.131Z" transform="translate(38.012 23.379)" fill="#06f"/>
  </g>
</svg>
