<svg xmlns="http://www.w3.org/2000/svg" width="41.359" height="41.355" viewBox="0 0 41.359 41.355">
  <g id="Medical_Cross" data-name="Medical Cross" transform="translate(-2.569 -2.57)">
    <path id="Path_22016" data-name="Path 22016" d="M25.379,43.425H21.118a5.4,5.4,0,0,1-5.391-5.391V30.7l-7.264.066a5.4,5.4,0,0,1-5.393-5.391V21.117a5.4,5.4,0,0,1,5.393-5.393h7.33l-.066-7.262A5.4,5.4,0,0,1,21.118,3.07h4.261a5.4,5.4,0,0,1,5.391,5.391v7.33l7.264-.068a5.4,5.4,0,0,1,5.393,5.393v4.261a5.4,5.4,0,0,1-5.393,5.391h-7.33l.063,7.264a5.4,5.4,0,0,1-5.389,5.391ZM8.462,17.983a3.136,3.136,0,0,0-3.134,3.134v4.261A3.136,3.136,0,0,0,8.462,28.51h7.33a2.2,2.2,0,0,1,2.2,2.194v7.33a3.136,3.136,0,0,0,3.132,3.132h4.261a3.136,3.136,0,0,0,3.132-3.132V30.7a2.2,2.2,0,0,1,2.2-2.194h7.328a3.136,3.136,0,0,0,3.134-3.132V21.117a3.136,3.136,0,0,0-3.136-3.134h-7.33a2.2,2.2,0,0,1-2.2-2.192V8.461A3.136,3.136,0,0,0,25.379,5.33H21.118a3.136,3.136,0,0,0-3.132,3.132v7.33a2.2,2.2,0,0,1-2.2,2.192Z" transform="translate(0 0)" fill="#005be5" stroke="#005be5" stroke-width="1"/>
  </g>
</svg>
