<svg xmlns="http://www.w3.org/2000/svg" width="48.134" height="48.134" viewBox="0 0 48.134 48.134">
  <g id="gps-svgrepo-com" transform="translate(-0.5 -0.5)">
    <path id="Path_22010" data-name="Path 22010" d="M40.107,22.054A18.054,18.054,0,1,1,22.054,4,18.054,18.054,0,0,1,40.107,22.054Z" transform="translate(2.513 2.513)" fill="none" stroke="#09236f" stroke-width="3"/>
    <path id="Path_22011" data-name="Path 22011" d="M22.54,15.77A6.77,6.77,0,1,1,15.77,9,6.77,6.77,0,0,1,22.54,15.77Z" transform="translate(8.797 8.797)" fill="none" stroke="#09236f" stroke-width="3"/>
    <path id="Path_22012" data-name="Path 22012" d="M2,12H6.513" transform="translate(0 12.567)" fill="none" stroke="#09236f" stroke-linecap="round" stroke-width="3"/>
    <path id="Path_22013" data-name="Path 22013" d="M20,12h4.513" transform="translate(22.621 12.567)" fill="none" stroke="#09236f" stroke-linecap="round" stroke-width="3"/>
    <path id="Path_22014" data-name="Path 22014" d="M12,6.513V2" transform="translate(12.567 0)" fill="none" stroke="#09236f" stroke-linecap="round" stroke-width="3"/>
    <path id="Path_22015" data-name="Path 22015" d="M12,24.513V20" transform="translate(12.567 22.621)" fill="none" stroke="#09236f" stroke-linecap="round" stroke-width="3"/>
  </g>
</svg>
