<svg xmlns="http://www.w3.org/2000/svg" width="49.433" height="43.277" viewBox="0 0 49.433 43.277">
  <g id="Group_2864" data-name="Group 2864" transform="translate(13500.058 13163.902)">
    <path id="Path_21630" data-name="Path 21630" d="M37.63,17.1H25.237a3.1,3.1,0,0,0-3.1,3.1v9.295H5.1V14H2V38.786H5.1v-6.2H42.278v6.2h3.1V24.844A7.755,7.755,0,0,0,37.63,17.1Zm4.647,12.393H25.237V20.2H37.63a4.653,4.653,0,0,1,4.647,4.647Z" transform="translate(-13496 -13159.411)" fill="#113295"/>
    <path id="Path_21631" data-name="Path 21631" d="M11.422,18.1A2.324,2.324,0,1,1,9.1,20.422,2.324,2.324,0,0,1,11.422,18.1m0-3.1a5.422,5.422,0,1,0,5.422,5.422A5.422,5.422,0,0,0,11.422,15Z" transform="translate(-13493.804 -13158.86)" fill="#113295"/>
    <path id="Path_21632" data-name="Path 21632" d="M26.491,8.2h-6.2V2H17.2V8.2H11v3.1h6.2v6.2h3.1v-6.2h6.2Z" transform="translate(-13511.058 -13165.902)" fill="#113295"/>
  </g>
</svg>
