<svg xmlns="http://www.w3.org/2000/svg" width="33.233" height="23.738" viewBox="0 0 33.233 23.738">
  <g id="patient-bed-hospital-svgrepo-com_1_" data-name="patient-bed-hospital-svgrepo-com (1)" transform="translate(-2 -6)">
    <path id="Path_22034" data-name="Path 22034" d="M15.563,9.561H13.186a1.187,1.187,0,1,0,0,2.374h2.369l-.007,2.37a1.187,1.187,0,1,0,2.374.007l.007-2.377h2.379a1.187,1.187,0,1,0,0-2.374h-2.37l.007-2.37a1.187,1.187,0,1,0-2.374-.007l-.007,2.377Z" transform="translate(1.869)" fill-rule="evenodd"/>
    <path id="Path_22035" data-name="Path 22035" d="M6.738,25.336V27.71a1.187,1.187,0,0,0,2.374,0V25.336H28.1V27.71a1.187,1.187,0,0,0,2.374,0V25.336h1.2a3.56,3.56,0,0,0,3.561-3.561V14.654a1.187,1.187,0,1,0-2.374,0v3.561H12.682V17.005a3.562,3.562,0,0,0-3.561-3.561H4.374V11.687a1.187,1.187,0,0,0-2.374,0V21.775a3.562,3.562,0,0,0,3.561,3.561Zm26.121-4.748H4.374v1.187a1.187,1.187,0,0,0,1.187,1.187H31.672a1.187,1.187,0,0,0,1.187-1.187ZM4.374,15.818v2.4h5.934V17.005a1.187,1.187,0,0,0-1.187-1.187Z" transform="translate(0 0.841)" fill-rule="evenodd"/>
  </g>
</svg>
