<svg xmlns="http://www.w3.org/2000/svg" viewBox="0 0 19.39 23"><defs><style>.cls-1{fill:#f9f9f9;}.cls-2{fill:#d2d2d2;}.cls-3{fill:#626262;}</style></defs><title>button-arrow</title><g id="Layer_2" data-name="Layer 2"><g id="Layer_1-2" data-name="Layer 1"><path class="cls-1" d="M10.84,22.53a1.62,1.62,0,0,1-2.29,0L.47,14.45a1.62,1.62,0,0,1,2.29-2.29L9.69,19.1l6.94-6.93a1.62,1.62,0,0,1,2.29,2.29l-8.08,8.07ZM18.91,4.76l-8.07,8.08a1.62,1.62,0,0,1-2.29,0L.47,4.76A1.62,1.62,0,0,1,2.76,2.47L9.69,9.41l6.94-6.93a1.62,1.62,0,0,1,2.29,2.28Z"/><path class="cls-2" d="M10.84,20.53a1.62,1.62,0,0,1-2.29,0L.47,12.45a1.62,1.62,0,0,1,2.29-2.29L9.69,17.1l6.94-6.93a1.62,1.62,0,0,1,2.29,2.29l-8.08,8.07ZM18.91,2.76l-8.07,8.08a1.62,1.62,0,0,1-2.29,0L.47,2.76A1.62,1.62,0,0,1,2.76.47L9.69,7.41,16.63.48a1.62,1.62,0,0,1,2.29,2.28Z"/><path class="cls-3" d="M10.84,21.53a1.62,1.62,0,0,1-2.29,0L.47,13.45a1.62,1.62,0,0,1,2.29-2.29L9.69,18.1l6.94-6.93a1.62,1.62,0,0,1,2.29,2.29l-8.08,8.07ZM18.91,3.76l-8.07,8.08a1.62,1.62,0,0,1-2.29,0L.47,3.76A1.62,1.62,0,0,1,2.76,1.47L9.69,8.41l6.94-6.93a1.62,1.62,0,0,1,2.29,2.28Z"/></g></g></svg>