<svg xmlns="http://www.w3.org/2000/svg" width="15.831" height="14.349" viewBox="0 0 15.831 14.349">
  <path id="Path_21076" data-name="Path 21076" d="M11.873,2a3.958,3.958,0,0,1,3.958,3.958V10.41a3.958,3.958,0,0,1-3.958,3.958H4.623a1.979,1.979,0,0,0-1.186.395L1.582,16.151A.989.989,0,0,1,0,15.359v-9.4A3.958,3.958,0,0,1,3.958,2Zm0,.989H3.958A2.968,2.968,0,0,0,.991,5.846l0,.111v9.4l1.854-1.388a2.968,2.968,0,0,1,1.642-.589l.137,0h7.25a2.968,2.968,0,0,0,2.966-2.857l0-.111V5.958a2.968,2.968,0,0,0-2.857-2.966ZM10.6,6.995a.5.5,0,0,1,.235.659A3.3,3.3,0,0,1,5,7.662a.495.495,0,1,1,.893-.427A2.313,2.313,0,0,0,9.942,7.23a.5.5,0,0,1,.659-.235Z" transform="translate(0 -2)"/>
</svg>
