<svg xmlns="http://www.w3.org/2000/svg" width="51.441" height="42.888" viewBox="0 0 51.441 42.888">
  <g id="Group_2337" data-name="Group 2337" transform="translate(-989.999 -498.638)">
    <path id="Union_16" data-name="Union 16" d="M27.144,41.456V21.806a7.181,7.181,0,0,1,7.174-7.172h.711A4.7,4.7,0,0,0,34.2,13.06C29.312,6.809,34.664,0,40.518,0c6.122,0,10.908,7.053,10.924,16.057,0,9.011-4.8,16.067-10.917,16.067-6.581,0-11.305-7.777-6.426-13.23a4.639,4.639,0,0,0,.845-1.4h-.618a4.32,4.32,0,0,0-4.32,4.317v19.65a1.431,1.431,0,1,1-2.861,0Zm9.29-30.21A7.361,7.361,0,0,1,38.1,15.9a7.45,7.45,0,0,1-1.848,4.87c-2.845,3.14-.652,7.985,4.27,8.495,4.361,0,8.054-6.048,8.069-13.213,0-7.166-3.693-13.212-8.053-13.212C36.8,3.075,33.173,6.706,36.434,11.247Zm-15,30.21V21.806a4.319,4.319,0,0,0-4.32-4.317H16.5a4.477,4.477,0,0,0,.848,1.4c4.877,5.453.152,13.23-6.429,13.23C4.786,32.124,0,25.068,0,16.057S4.786,0,10.908,0c5.854,0,11.205,6.824,6.32,13.06a4.317,4.317,0,0,0-.832,1.574h.729A7.183,7.183,0,0,1,24.3,21.806v19.65a1.432,1.432,0,0,1-2.863,0ZM2.854,16.057c0,7.165,3.693,13.213,8.072,13.213,4.911-.51,7.115-5.346,4.268-8.495a7.447,7.447,0,0,1-1.845-4.87,7.318,7.318,0,0,1,1.659-4.658c3.261-4.531-.364-8.181-4.1-8.4C6.538,2.845,2.854,8.9,2.854,16.057Zm3.152,3.37H6.36a1.432,1.432,0,0,0,0-2.863H5.708a15.959,15.959,0,0,1,.145-2.854H8.919a1.43,1.43,0,1,0,0-2.861H6.488C7.538,7.614,9.444,5.716,10.9,5.716a2.935,2.935,0,0,1,1.938.923A2.08,2.08,0,0,1,12.78,9.46a10.168,10.168,0,0,0,.236,13.185,1.957,1.957,0,0,1,.1,2.593,3.335,3.335,0,0,1-2.22,1.193C9.171,26.431,6.836,23.788,6.006,19.427Zm32.375,3.218a10.391,10.391,0,0,0,2.55-6.741,11.3,11.3,0,0,0-2.3-6.445,2.282,2.282,0,0,1,1.873-3.745c2.118.111,5.19,4.031,5.19,10.348s-3.081,10.352-5.2,10.352H40.45C39.44,26.417,36.64,24.679,38.381,22.646Z" transform="translate(989.999 498.638)" fill="#fff"/>
  </g>
</svg>
