<svg id="XMLID_23_" xmlns="http://www.w3.org/2000/svg" width="16" height="16" viewBox="0 0 17.881 17.881">
  <path id="XMLID_24_" d="M75,9.753V13a.813.813,0,0,0,.813.813h3.251a.813.813,0,0,0,.575-.238l8.94-8.94a.813.813,0,0,0,0-1.149L85.328.238a.813.813,0,0,0-1.149,0l-8.94,8.94A.812.812,0,0,0,75,9.753Zm1.626.337,8.128-8.128,2.1,2.1-8.128,8.128h-2.1Z" transform="translate(-70.936 0)" fill="#fff"/>
  <path id="XMLID_27_" d="M17.068,8.128a.813.813,0,0,0-.813.813v7.315H1.626V1.626H8.94A.813.813,0,0,0,8.94,0H.813A.813.813,0,0,0,0,.813V17.068a.813.813,0,0,0,.813.813H17.068a.813.813,0,0,0,.813-.813V8.94A.813.813,0,0,0,17.068,8.128Z" fill="#fff"/>
</svg>
