<svg xmlns="http://www.w3.org/2000/svg" width="4.945" height="23.055" viewBox="0 0 4.945 23.055">
  <g id="exclamation-mark-svgrepo-com" transform="translate(-201.09)">
    <path id="Path_21442" data-name="Path 21442" d="M203.635,15.6a.974.974,0,0,0,.266.511.7.7,0,0,0,.531.245.736.736,0,0,0,.8-.757l1.594-12.247a7.842,7.842,0,0,0,.041-.919A2.548,2.548,0,0,0,206.23.756a2.216,2.216,0,0,0-1.8-.756,2.176,2.176,0,0,0-1.819.776A2.574,2.574,0,0,0,202,2.432a8.559,8.559,0,0,0,.04.919Z" transform="translate(-0.869 0)"/>
    <path id="Path_21443" data-name="Path 21443" d="M205.32,403.32a2.483,2.483,0,0,0-4.23,1.757,2.455,2.455,0,0,0,.715,1.737,2.356,2.356,0,0,0,1.758.735,2.486,2.486,0,0,0,1.758-4.23Z" transform="translate(0 -384.495)"/>
  </g>
</svg>
