<svg xmlns="http://www.w3.org/2000/svg"
     width="12" height="12"
     viewBox="0 0 17.049 17.049">
    <g id="Group_2453"
       data-name="Group 2453"
       transform="translate(-328.598 -1619)">
        <circle id="Ellipse_643"
                data-name="Ellipse 643"
                cx="6" cy="6" r="6"
                transform="translate(331.123 1622.123)"
                fill="#fff" />
        <g id="Group_2450"
           data-name="Group 2450"
           transform="translate(328.598 1619)">
            <path
                id="tick-circle-svgrepo-com_1_"
                data-name="tick-circle-svgrepo-com (1)"
                d="M10.524,2a8.524,8.524,0,1,0,8.524,8.524A8.538,8.538,0,0,0,10.524,2ZM14.6,8.564,9.766,13.4a.638.638,0,0,1-.9,0L6.45,10.985a.639.639,0,1,1,.9-.9l1.961,1.961L13.7,7.66a.639.639,0,0,1,.9.9Z"
                transform="translate(-2 -2)"
                fill="#00c60d" />
        </g>
    </g>
</svg>
