<svg width="20px" height="20px" viewBox="0 0 512 512" xmlns="http://www.w3.org/2000/svg" fill="#000000"><g id="SVGRepo_bgCarrier" stroke-width="0"></g><g id="SVGRepo_tracerCarrier" stroke-linecap="round" stroke-linejoin="round"></g><g id="SVGRepo_iconCarrier"> <rect width="240" height="32" x="256" y="416" fill="var(--ci-primary-color, #000000)" class="ci-primary"></rect> <rect width="240" height="32" x="256" y="309.333" fill="var(--ci-primary-color, #000000)" class="ci-primary"></rect> <rect width="240" height="32" x="256" y="202.667" fill="var(--ci-primary-color, #000000)" class="ci-primary"></rect> <rect width="168" height="32" x="328" y="96" fill="var(--ci-primary-color, #000000)" class="ci-primary"></rect> <path fill="var(--ci-primary-color, #000000)" d="M302,111,167.2,27.216V96h-5.965C121.783,96,84.91,114.755,57.4,148.81,30.7,181.866,16,225.616,16,272s14.7,90.134,41.4,123.19C84.91,429.245,121.783,448,161.231,448H216V416H161.231C98.8,416,48,351.4,48,272S98.8,128,161.231,128H167.2v69.228ZM199.2,84.784,242,111.391,199.2,138.772Z" class="ci-primary"></path> </g></svg>