<svg xmlns="http://www.w3.org/2000/svg" width="19.927" height="13.911" viewBox="0 0 19.927 13.911">
  <g id="list-svgrepo-com" transform="translate(-4 -6.505)">
    <path id="Path_21417" data-name="Path 21417" d="M22.116,13.148H8.2a.949.949,0,0,1,0-1.9H22.116a.949.949,0,0,1,0,1.9Z" transform="translate(0.862 1.258)"/>
    <path id="Path_21418" data-name="Path 21418" d="M22.116,8.648H8.2a.949.949,0,0,1,0-1.9H22.116a.949.949,0,0,1,0,1.9Z" transform="translate(0.862 0.065)"/>
    <path id="Path_21419" data-name="Path 21419" d="M22.116,17.648H8.2a.949.949,0,0,1,0-1.9H22.116a.949.949,0,0,1,0,1.9Z" transform="translate(0.862 2.452)"/>
    <path id="Path_21420" data-name="Path 21420" d="M5.265,9.029a1.265,1.265,0,0,1-.481-.089,1.847,1.847,0,0,1-.418-.278A1.265,1.265,0,0,1,4,7.764a1.328,1.328,0,0,1,.367-.9A1.177,1.177,0,0,1,4.784,6.6a1.308,1.308,0,0,1,1.379.266,1.328,1.328,0,0,1,.367.9,1.265,1.265,0,0,1-.367.9,1.847,1.847,0,0,1-.418.278A1.265,1.265,0,0,1,5.265,9.029Z" transform="translate(0 0)"/>
    <path id="Path_21421" data-name="Path 21421" d="M5.265,13.534a1.267,1.267,0,0,1-.481-.1,1.457,1.457,0,0,1-.418-.266,1.265,1.265,0,0,1-.367-.9,1.328,1.328,0,0,1,.367-.9,1.452,1.452,0,0,1,.418-.266,1.264,1.264,0,0,1,.734-.1l.228.076.228.114a2,2,0,0,1,.19.152,1.328,1.328,0,0,1,.367.924,1.265,1.265,0,0,1-1.265,1.265Z" transform="translate(0 1.189)"/>
    <path id="Path_21422" data-name="Path 21422" d="M5.265,18.03a1.265,1.265,0,0,1-.481-.089,1.848,1.848,0,0,1-.418-.278,1.455,1.455,0,0,1-.266-.418,1.189,1.189,0,0,1,0-.962,1.455,1.455,0,0,1,.266-.418,1.308,1.308,0,0,1,1.8,0,1.455,1.455,0,0,1,.266.418,1.189,1.189,0,0,1,0,.962,1.455,1.455,0,0,1-.266.418,1.265,1.265,0,0,1-.9.367Z" transform="translate(0 2.386)"/>
  </g>
</svg>
