<svg xmlns="http://www.w3.org/2000/svg" width="19.563" height="19.563" viewBox="0 0 19.563 19.563">
  <g id="Group_2008" data-name="Group 2008" transform="translate(-1481 -1147)">
    <path id="Path_20660" data-name="Path 20660" d="M11.032,20.813a9.782,9.782,0,1,1,9.782-9.782A9.79,9.79,0,0,1,11.032,20.813Zm0-18.2a8.417,8.417,0,1,0,8.417,8.417A8.427,8.427,0,0,0,11.032,2.615Z" transform="translate(1479.75 1145.75)" fill="#fff"/>
    <path id="Path_20871" data-name="Path 20871" d="M3.847,0H2.994L1.271-2.915l-.018,0V0H.4V-4.266h.855L2.977-1.354l.018,0V-4.266h.853ZM5.039.366H4.207L5.771-4.266H6.6ZM9.352-.92h-1.5L7.564,0H6.7L8.168-4.266h.876L10.506,0H9.642ZM8.065-1.591H9.141L8.613-3.267H8.6Z" transform="translate(1485.602 1158.266)" fill="#fff"/>
  </g>
</svg>
