<svg xmlns="http://www.w3.org/2000/svg" width="22.062" height="22.062" viewBox="0 0 22.062 22.062">
  <path id="print-svgrepo-com" d="M4.906,18.124H1.969A1.469,1.469,0,0,1,.5,16.655V10.781A1.469,1.469,0,0,1,1.969,9.312H19.593a1.469,1.469,0,0,1,1.469,1.469v5.875a1.469,1.469,0,0,1-1.469,1.469H16.655M4.906,9.312V1.969A1.469,1.469,0,0,1,6.375.5h8.812a1.469,1.469,0,0,1,1.469,1.469V9.312M4.906,15.187H16.655v5.875H4.906Z" transform="translate(0.25 0.25)" fill="none" stroke="#000" stroke-width="1.5"/>
</svg>
