<svg xmlns="http://www.w3.org/2000/svg" width="13.192" height="12.386" viewBox="0 0 13.192 12.386">
  <path id="star-svgrepo-com" d="M14.719,10.132l1.773,3.517a.143.143,0,0,0,.109.078l3.949.562a.148.148,0,0,1,.078.259l-2.851,2.721a.145.145,0,0,0-.041.132l.674,3.856a.145.145,0,0,1-.21.155L14.657,19.6a.153.153,0,0,0-.135,0l-3.543,1.814a.145.145,0,0,1-.21-.155l.674-3.856a.145.145,0,0,0-.041-.132L8.551,14.543a.148.148,0,0,1,.078-.259l3.955-.562a.143.143,0,0,0,.109-.078l1.767-3.511a.145.145,0,0,1,.259,0Z" transform="translate(-7.993 -9.552)" fill="none" stroke="#000" stroke-width="1"/>
</svg>
