<svg xmlns="http://www.w3.org/2000/svg" width="28" height="23" viewBox="0 0 28 23">
  <g id="Polygon_94" data-name="Polygon 94" fill="#fff">
    <path d="M 22.66184997558594 22.50000381469727 L 5.338150024414062 22.50000381469727 C 4.422210216522217 22.50000381469727 3.607480049133301 22.02329254150391 3.158740043640137 21.22481346130371 C 2.710000038146973 20.42633247375488 2.726419925689697 19.48252296447754 3.202660083770752 18.70013236999512 L 11.86450004577637 4.469953060150146 C 12.32192993164062 3.718463182449341 13.12024974822998 3.26982307434082 14 3.26982307434082 C 14.87975025177002 3.26982307434082 15.67807006835938 3.718463182449341 16.13549995422363 4.469953060150146 L 24.79734992980957 18.70013236999512 C 25.27359008789062 19.48252296447754 25.29000091552734 20.42633247375488 24.84126091003418 21.22481346130371 C 24.39252090454102 22.02329254150391 23.57777976989746 22.50000381469727 22.66184997558594 22.50000381469727 Z" stroke="none"/>
    <path d="M 14 3.769813537597656 C 13.29619026184082 3.769813537597656 12.6575403213501 4.128732681274414 12.29160022735596 4.729923248291016 L 3.629749298095703 18.96011352539062 C 3.248760223388672 19.58602333068848 3.235630035400391 20.34106254577637 3.594619750976562 20.9798526763916 C 3.953620910644531 21.61863327026367 4.605400085449219 22.00000381469727 5.338150024414062 22.00000381469727 L 22.66184997558594 22.00000381469727 C 23.39459991455078 22.00000381469727 24.04637908935547 21.61863327026367 24.40538024902344 20.9798526763916 C 24.76436996459961 20.34106254577637 24.75123023986816 19.58602333068848 24.3702392578125 18.96011352539062 L 15.70839977264404 4.729923248291016 C 15.3424596786499 4.128732681274414 14.70380020141602 3.769813537597656 14 3.769813537597656 M 14 2.769815444946289 C 14.98909282684326 2.769815444946289 15.97818470001221 3.249868392944336 16.56259918212891 4.209972381591797 L 25.22443962097168 18.44016265869141 C 26.44133949279785 20.4393424987793 25.00226974487305 23.00000381469727 22.66184997558594 23.00000381469727 L 5.338150024414062 23.00000381469727 C 2.997730255126953 23.00000381469727 1.558660507202148 20.4393424987793 2.775550842285156 18.44016265869141 L 11.43740081787109 4.209972381591797 C 12.02181529998779 3.249868392944336 13.01090717315674 2.769815444946289 14 2.769815444946289 Z" stroke="none" fill="#ff2624"/>
  </g>
</svg>
