<svg xmlns="http://www.w3.org/2000/svg" width="80.162" height="65.847" viewBox="0 0 80.162 65.847">
  <g id="Polygon_95" data-name="Polygon 95" fill="#fff">
    <path d="M 74.82338714599609 64.84681701660156 L 5.338157653808594 64.84681701660156 C 4.60541296005249 64.84681701660156 3.953624248504639 64.4654541015625 3.594635248184204 63.82667541503906 C 3.235635280609131 63.18788528442383 3.248779773712158 62.43284225463867 3.62976861000061 61.80691909790039 L 38.37237930297852 4.72990894317627 C 38.73831176757812 4.128720283508301 39.37696838378906 3.769809007644653 40.08076858520508 3.769809007644653 C 40.78456878662109 3.769809007644653 41.42322540283203 4.128720283508301 41.78916931152344 4.72990894317627 L 76.53177642822266 61.80691909790039 C 76.91276550292969 62.43284225463867 76.92591094970703 63.18788528442383 76.56690979003906 63.82667541503906 C 76.20792388916016 64.4654541015625 75.55613708496094 64.84681701660156 74.82338714599609 64.84681701660156 Z" stroke="none"/>
    <path d="M 40.08076858520508 4.769805908203125 C 39.91179275512695 4.769805908203125 39.49031066894531 4.816581726074219 39.22658157348633 5.249851226806641 L 4.483955383300781 62.32686233520508 C 4.209381103515625 62.77796936035156 4.380203247070312 63.18338012695312 4.466392517089844 63.33674621582031 C 4.552581787109375 63.4901123046875 4.810066223144531 63.84681701660156 5.338157653808594 63.84681701660156 L 74.82337951660156 63.84681701660156 C 75.35147094726562 63.84681701660156 75.60895538330078 63.49009704589844 75.69514465332031 63.33673477172852 C 75.78133392333984 63.18336868286133 75.95215606689453 62.77795791625977 75.67758178710938 62.32686233520508 L 40.93496704101562 5.249851226806641 C 40.67123794555664 4.816581726074219 40.2497444152832 4.769805908203125 40.08076858520508 4.769805908203125 M 40.08077621459961 2.769805908203125 C 41.06986618041992 2.769805908203125 42.05895614624023 3.249855041503906 42.64336776733398 4.209957122802734 L 77.38597869873047 61.28696823120117 C 78.60287475585938 63.28615570068359 77.16380310058594 65.84681701660156 74.82337951660156 65.84681701660156 L 5.338157653808594 65.84681701660156 C 2.997734069824219 65.84681701660156 1.558662414550781 63.28615570068359 2.775566101074219 61.28696823120117 L 37.51818084716797 4.209957122802734 C 38.10259246826172 3.249855041503906 39.09168243408203 2.769805908203125 40.08077621459961 2.769805908203125 Z" stroke="none" fill="#ff2624"/>
  </g>
</svg>
