<svg xmlns="http://www.w3.org/2000/svg" width="11.54" height="8.622" viewBox="0 0 11.54 8.622">
  <g id="butterfly-animals-svgrepo-com" transform="translate(0 0)">
    <g id="SVGCleanerId_0" transform="translate(2.76 6.213)">
      <g id="Group_1964" data-name="Group 1964">
        <path id="Path_20918" data-name="Path 20918" d="M123.518,340.508a.243.243,0,0,0-.339-.056,2.483,2.483,0,0,0-.669.714.243.243,0,1,0,.413.257,2,2,0,0,1,.538-.575A.243.243,0,0,0,123.518,340.508Z" transform="translate(-122.474 -340.406)" fill="#f765a3"/>
      </g>
    </g>
    <g id="Group_1966" data-name="Group 1966" transform="translate(1.333 2.193)">
      <g id="Group_1965" data-name="Group 1965" transform="translate(0 0)">
        <path id="Path_20919" data-name="Path 20919" d="M60.777,162.057H59.4a.243.243,0,0,0-.23.322,3.774,3.774,0,0,0,2.342,2.343.243.243,0,0,0,.322-.23v-1.38A1.057,1.057,0,0,0,60.777,162.057Zm.569,2.075a3.3,3.3,0,0,1-1.4-1.248,3.222,3.222,0,0,1-.185-.341h1.018a.569.569,0,0,1,.569.569v1.02Z" transform="translate(-59.155 -162.057)" fill="#f765a3"/>
      </g>
    </g>
    <g id="Group_1969" data-name="Group 1969" transform="translate(0 0)">
      <g id="Group_1968" data-name="Group 1968" transform="translate(0 0)">
        <g id="Group_1967" data-name="Group 1967">
          <path id="Path_20920" data-name="Path 20920" d="M10.8,68.616a4.9,4.9,0,0,0,.737-2.588.243.243,0,0,0-.243-.243H8.585A2.2,2.2,0,0,0,6.5,67.277a1.3,1.3,0,0,0-.486-.717,1.518,1.518,0,0,1,1.505-1.339.243.243,0,0,0,0-.487,2,2,0,0,0-1.759,1.046A2,2,0,0,0,4,64.734a.243.243,0,1,0,0,.487,1.518,1.518,0,0,1,1.506,1.348,1.335,1.335,0,0,0-.471.71,2.2,2.2,0,0,0-2.083-1.494H.243A.243.243,0,0,0,0,66.027,4.91,4.91,0,0,0,2.5,70.3a3.624,3.624,0,0,0-1.216,2.711.243.243,0,0,0,.243.243H3.492a1.664,1.664,0,0,0,1.459-.867c.2.64.471.964.819.964s.623-.324.819-.964a1.663,1.663,0,0,0,1.459.867h1.967a.243.243,0,0,0,.243-.243A3.624,3.624,0,0,0,9.043,70.3,4.911,4.911,0,0,0,10.8,68.616ZM4.667,71.6a1.177,1.177,0,0,1-1.175,1.175H1.777a3.139,3.139,0,0,1,1.306-2.314.478.478,0,0,0,.079-.1.243.243,0,0,0-.118-.323A4.424,4.424,0,0,1,.493,66.271H2.955a1.714,1.714,0,0,1,1.712,1.712V71.6Zm1.718-1.56a8.287,8.287,0,0,1-.242,2.147c-.163.569-.336.686-.373.686s-.211-.116-.373-.686a4.979,4.979,0,0,1-.11-.486h.278a.243.243,0,0,0,0-.487H5.217c-.021-.193-.037-.4-.048-.608h.6a.243.243,0,0,0,0-.487H5.156c0-.03,0-.06,0-.09a9.6,9.6,0,0,1,.228-2.2c.161-.654.343-.83.388-.845.045.015.227.191.388.845a9.583,9.583,0,0,1,.227,2.189v.023Zm2.11,0a.243.243,0,0,0-.118.323.247.247,0,0,0,.07.088h0l.008.006h0a3.14,3.14,0,0,1,1.307,2.314H8.048A1.177,1.177,0,0,1,6.873,71.6v-.9s0-.006,0-.009v-2.7a1.714,1.714,0,0,1,1.712-1.712h2.462A4.424,4.424,0,0,1,8.5,70.039Z" transform="translate(0 -64.734)" fill="#f765a3"/>
          <path id="Path_20921" data-name="Path 20921" d="M336.7,162.183a.231.231,0,0,0-.016-.025.233.233,0,0,0-.018-.023.243.243,0,0,0-.179-.079h-1.378a1.057,1.057,0,0,0-1.055,1.056h0v1.38h0a.243.243,0,0,0,.243.243.241.241,0,0,0,.079-.013,3.719,3.719,0,0,0,.93-.472l.065-.047q.1-.071.19-.149l.061-.052a3.8,3.8,0,0,0,.733-.861,3.746,3.746,0,0,0,.362-.763.244.244,0,0,0-.017-.2Zm-.758.7a3.3,3.3,0,0,1-1.4,1.248v-1.02a.57.57,0,0,1,.569-.569h1.018A3.263,3.263,0,0,1,335.946,162.884Z" transform="translate(-326.528 -159.863)" fill="#f765a3"/>
          <path id="Path_20922" data-name="Path 20922" d="M341.631,340.512q-.048-.038-.1-.074a.243.243,0,0,0-.158-.045.237.237,0,0,0-.046.008l-.022.007a.244.244,0,0,0-.094.393.245.245,0,0,0,.037.033c.032.023.062.046.093.071a1.994,1.994,0,0,1,.446.5.233.233,0,0,0,.08.079.246.246,0,0,0,.047.022.239.239,0,0,0,.145,0l.032-.012.031-.016a.243.243,0,0,0,.078-.335q-.065-.105-.14-.2a2.482,2.482,0,0,0-.328-.351Q341.683,340.554,341.631,340.512Z" transform="translate(-333.458 -334.18)" fill="#f765a3"/>
        </g>
      </g>
    </g>
    <g id="Group_1971" data-name="Group 1971" transform="translate(2.76 6.213)">
      <g id="Group_1970" data-name="Group 1970">
        <path id="Path_20923" data-name="Path 20923" d="M123.518,340.508a.243.243,0,0,0-.339-.056,2.483,2.483,0,0,0-.669.714.243.243,0,1,0,.413.257,2,2,0,0,1,.538-.575A.243.243,0,0,0,123.518,340.508Z" transform="translate(-122.474 -340.406)" fill="#f765a3"/>
      </g>
    </g>
    <g id="Group_1973" data-name="Group 1973" transform="translate(1.333 2.193)">
      <g id="Group_1972" data-name="Group 1972" transform="translate(0 0)">
        <path id="Path_20924" data-name="Path 20924" d="M60.777,162.057H59.4a.243.243,0,0,0-.23.322,3.774,3.774,0,0,0,2.342,2.343.243.243,0,0,0,.322-.23v-1.38A1.057,1.057,0,0,0,60.777,162.057Zm.569,2.075a3.3,3.3,0,0,1-1.4-1.248,3.222,3.222,0,0,1-.185-.341h1.018a.569.569,0,0,1,.569.569v1.02Z" transform="translate(-59.155 -162.057)" fill="#f765a3"/>
      </g>
    </g>
    <g id="Group_1975" data-name="Group 1975" transform="translate(7.689 6.213)">
      <g id="Group_1974" data-name="Group 1974">
        <path id="Path_20925" data-name="Path 20925" d="M342.2,341.152a2.485,2.485,0,0,0-.669-.714.243.243,0,1,0-.283.4,2,2,0,0,1,.539.575.243.243,0,1,0,.413-.257Z" transform="translate(-341.148 -340.392)" fill="#f765a3"/>
      </g>
    </g>
    <g id="SVGCleanerId_2" transform="translate(7.529 2.193)">
      <g id="Group_1976" data-name="Group 1976" transform="translate(0 0)">
        <path id="Path_20926" data-name="Path 20926" d="M336.689,162.16a.243.243,0,0,0-.2-.1h-1.378a1.057,1.057,0,0,0-1.055,1.055v1.38a.243.243,0,0,0,.322.23,3.774,3.774,0,0,0,2.342-2.343A.244.244,0,0,0,336.689,162.16Zm-.743.726a3.3,3.3,0,0,1-1.4,1.248v-1.02a.57.57,0,0,1,.569-.569h1.018A3.264,3.264,0,0,1,335.946,162.886Z" transform="translate(-334.057 -162.058)" fill="#f765a3"/>
      </g>
    </g>
    <g id="Group_1978" data-name="Group 1978" transform="translate(7.529 2.193)">
      <g id="Group_1977" data-name="Group 1977" transform="translate(0 0)">
        <path id="Path_20927" data-name="Path 20927" d="M336.689,162.16a.243.243,0,0,0-.2-.1h-1.378a1.057,1.057,0,0,0-1.055,1.055v1.38a.243.243,0,0,0,.322.23,3.774,3.774,0,0,0,2.342-2.343A.244.244,0,0,0,336.689,162.16Zm-.743.726a3.3,3.3,0,0,1-1.4,1.248v-1.02a.57.57,0,0,1,.569-.569h1.018A3.264,3.264,0,0,1,335.946,162.886Z" transform="translate(-334.057 -162.058)" fill="#f765a3"/>
      </g>
    </g>
    <g id="Group_1980" data-name="Group 1980" transform="translate(1.333 2.193)">
      <g id="Group_1979" data-name="Group 1979" transform="translate(0 0)">
        <path id="Path_20928" data-name="Path 20928" d="M60.777,162.057H59.4a.243.243,0,0,0-.23.322,3.774,3.774,0,0,0,2.342,2.343.243.243,0,0,0,.322-.23v-1.38A1.057,1.057,0,0,0,60.777,162.057Zm.569,2.075a3.3,3.3,0,0,1-1.4-1.248,3.222,3.222,0,0,1-.185-.341h1.018a.569.569,0,0,1,.569.569v1.02Z" transform="translate(-59.155 -162.057)" fill="#f765a3"/>
      </g>
    </g>
    <g id="Group_1982" data-name="Group 1982" transform="translate(2.76 6.213)">
      <g id="Group_1981" data-name="Group 1981">
        <path id="Path_20929" data-name="Path 20929" d="M123.518,340.508a.243.243,0,0,0-.339-.056,2.483,2.483,0,0,0-.669.714.243.243,0,1,0,.413.257,2,2,0,0,1,.538-.575A.243.243,0,0,0,123.518,340.508Z" transform="translate(-122.474 -340.406)" fill="#f765a3"/>
      </g>
    </g>
    <g id="Group_1984" data-name="Group 1984" transform="translate(7.689 6.213)">
      <g id="Group_1983" data-name="Group 1983">
        <path id="Path_20930" data-name="Path 20930" d="M342.2,341.152a2.485,2.485,0,0,0-.669-.714.243.243,0,1,0-.283.4,2,2,0,0,1,.539.575.243.243,0,1,0,.413-.257Z" transform="translate(-341.148 -340.392)" fill="#f765a3"/>
      </g>
    </g>
  </g>
</svg>
