<svg xmlns="http://www.w3.org/2000/svg" width="12.779" height="11.359" viewBox="0 0 12.779 11.359">
  <g id="Group_2400" data-name="Group 2400" transform="translate(0 0)">
    <path id="Polygon_68" data-name="Polygon 68" d="M5.518,1.549a1,1,0,0,1,1.743,0l4.68,8.32a1,1,0,0,1-.872,1.49H1.71a1,1,0,0,1-.872-1.49Z" transform="translate(0 0)" fill="#c00"/>
    <g id="slide-svgrepo-com" transform="translate(4.147 5.084)">
      <g id="Group_1985" data-name="Group 1985" transform="translate(0 0)">
        <ellipse id="Ellipse_480" data-name="Ellipse 480" cx="0.529" cy="0.529" rx="0.529" ry="0.529" transform="translate(0.03 0)" fill="#fff"/>
        <path id="Path_20932" data-name="Path 20932" d="M16,3.074a2.569,2.569,0,0,0-.7-.367.343.343,0,0,0-.246,0,.33.33,0,0,0-.066-.006,1.719,1.719,0,0,0-.734.173.687.687,0,0,0-.066-.115l-.3-.421a1.764,1.764,0,0,0,.575-.748c.149-.361-.421-.562-.569-.2a1.079,1.079,0,0,1-.358.459l-.164-.23a6.923,6.923,0,0,0,.9-.785c.261-.273-.194-.643-.454-.371a6.747,6.747,0,0,1-1.155.94.468.468,0,0,0-.088.06.524.524,0,0,0-.051.724l.891,1.248a.408.408,0,0,0,.2.148,2.076,2.076,0,0,1,.523,1.594.3.3,0,0,0,.6.035,2.778,2.778,0,0,0-.417-1.7,1.236,1.236,0,0,1,.713-.223.3.3,0,0,0,.1-.018,2.015,2.015,0,0,1,.487.257A.293.293,0,1,0,16,3.074Z" transform="translate(-11.721 -0.335)" fill="#fff"/>
        <path id="Path_20933" data-name="Path 20933" d="M5.66,51.505a3.945,3.945,0,0,1-.55-.146,1.289,1.289,0,0,1-.253-.119.332.332,0,0,1-.168-.213.237.237,0,0,0,.029.147.486.486,0,0,0,.1.121,1.056,1.056,0,0,0,.252.167,2.38,2.38,0,0,0,.566.185,3.6,3.6,0,0,0,.586.067,3.137,3.137,0,0,0,.587-.031c-.194-.03-.386-.054-.577-.082S5.847,51.544,5.66,51.505Z" transform="translate(-4.687 -46.498)" fill="#fff"/>
        <path id="Path_20934" data-name="Path 20934" d="M15.7,49.652a3.322,3.322,0,0,1-.329-.081.877.877,0,0,1-.153-.063.2.2,0,0,1-.111-.118.2.2,0,0,0,.067.173.612.612,0,0,0,.153.111,1.286,1.286,0,0,0,.345.119,1.773,1.773,0,0,0,.358.035,1.432,1.432,0,0,0,.357-.041c-.118-.03-.233-.051-.347-.072Z" transform="translate(-14.178 -45.007)" fill="#fff"/>
      </g>
    </g>
  </g>
</svg>
