<svg xmlns="http://www.w3.org/2000/svg" width="12.936" height="10.266" viewBox="0 0 12.936 10.266">
  <g id="Layer_11" transform="translate(0)">
    <path id="Path_20941" data-name="Path 20941" d="M11.23,9.787l.639.1a3.532,3.532,0,0,1-.726,1.571,7.922,7.922,0,0,1-1.587,1.516,6.225,6.225,0,0,1-1.852.988l-.2-.614a5.588,5.588,0,0,0,1.673-.895,7.288,7.288,0,0,0,1.456-1.385,2.9,2.9,0,0,0,.6-1.278M10.046,7.374a5.7,5.7,0,0,1-.94,2.378,7.885,7.885,0,0,1-2.718,2.116,19.868,19.868,0,0,1-3.606,1.288L2.747,14.3c1.488,1.46,3.658,1.313,5.471.617a7.693,7.693,0,0,0,4.493-4.144,3.78,3.78,0,0,0-.83-3.87,1.97,1.97,0,0,1-.349-.974c-.035-.253-.053-.513-.075-.768-.592.127-1.159.295-1.749.422a5.559,5.559,0,0,0,.213.8A1.577,1.577,0,0,1,10.046,7.374Zm-2.4,1.645c-2.184,1.167-4.794.94-7.156.6L0,10.662a3.854,3.854,0,0,0,2.048,2.1A21.353,21.353,0,0,0,6.13,11.357,7.4,7.4,0,0,0,8.66,9.4a5.71,5.71,0,0,0,.853-2.269A5.982,5.982,0,0,1,7.645,9.019Z" transform="translate(0 -5.163)" fill="#ffc300" fill-rule="evenodd"/>
  </g>
</svg>
