<svg xmlns="http://www.w3.org/2000/svg" width="13.84" height="6.495" viewBox="0 0 13.84 6.495">
  <path id="Path_21268" data-name="Path 21268" d="M2.453-4.3H1.908l-.089.563h.536Zm1.51-.536-.1.536h-.8l-.107.563h.8l-.08.536H2.864L2.435-.775H1.819L2.257-3.2H1.721L1.283-.775H.666L1.1-3.2H.3l.1-.536h.8l.1-.563h-.8L.6-4.84h.8l.429-2.43h.616L2.007-4.84h.536l.447-2.43h.6l-.42,2.43ZM4.41-7.252h2.52l.223,1.206H5.741v1.537H6.813v1.117H5.741V-.775H4.41ZM8.841-6.117v1.7h.608a.167.167,0,0,0,.116-.04.166.166,0,0,0,.045-.13v-1.4q0-.125-.116-.125Zm.786,2.868A.174.174,0,0,0,9.574-3.4a.233.233,0,0,0-.143-.04h-.59v1.528h.652A.139.139,0,0,0,9.6-1.941a.157.157,0,0,0,.027-.1Zm1.224-1.438a.865.865,0,0,1-.094.415.536.536,0,0,1-.353.246.486.486,0,0,1,.389.188.647.647,0,0,1,.121.384v1.68a1.087,1.087,0,0,1-.223.768A1.069,1.069,0,0,1,9.9-.775H7.555V-7.252h2.528a.734.734,0,0,1,.576.214.825.825,0,0,1,.192.572ZM12.46-.775a1.069,1.069,0,0,1-.786-.232,1.087,1.087,0,0,1-.223-.768V-6.457a.77.77,0,0,1,.219-.59.76.76,0,0,1,.541-.205h1.707l.223,1.206H12.9q-.116,0-.116.125v3.815q0,.125.116.125H14.14L13.907-.775Z" transform="translate(-0.3 7.27)" fill="#7a0b2b"/>
</svg>
