<svg xmlns="http://www.w3.org/2000/svg" xmlns:xlink="http://www.w3.org/1999/xlink" width="85.196" height="82.124" viewBox="0 0 85.196 60">
  <defs>
    <filter id="hexagon-fill-svgrepo-com" x="0" y="0" width="85.196" height="82.124" filterUnits="userSpaceOnUse">
      <feOffset dy="10" input="SourceAlpha"/>
      <feGaussianBlur stdDeviation="6.5" result="blur"/>
      <feFlood flood-opacity="0.2"/>
      <feComposite operator="in" in2="blur"/>
      <feComposite in="SourceGraphic"/>
    </filter>
  </defs>
  <g id="Group_2848" data-name="Group 2848" transform="translate(20.293 10.25)">
    <path id="Path_21613" data-name="Path 21613" d="M-10-5.611h-.378a.377.377,0,0,0-.42.42v.913c0,.514-.252.672-.64.672s-.64-.157-.64-.672V-8.309c0-.514.252-.672.64-.672s.64.157.64.672v.735a.377.377,0,0,0,.42.42H-10a.377.377,0,0,0,.42-.42V-8.5c0-1.092-.735-1.554-1.848-1.554h-.021c-1.113,0-1.848.462-1.848,1.554v4.41c0,1.144.735,1.554,1.848,1.554h.021c1.113,0,1.848-.42,1.848-1.554v-1.1A.377.377,0,0,0-10-5.611Zm3.286-4.357H-8.2a.377.377,0,0,0-.42.42v6.51a.377.377,0,0,0,.42.42h.378a.377.377,0,0,0,.42-.42V-5.464h.682c1.113,0,1.848-.441,1.848-1.554v-1.4C-4.869-9.527-5.6-9.968-6.717-9.968Zm.63,2.761c0,.525-.273.672-.672.672H-7.4V-8.9h.64c.4,0,.672.147.672.672ZM-.6-3.07-1.824-9.59a.424.424,0,0,0-.462-.378h-.756A.424.424,0,0,0-3.5-9.59L-4.711-3.07a.343.343,0,0,0,.378.451h.325a.415.415,0,0,0,.451-.388l.2-1.249h1.344l.2,1.249a.415.415,0,0,0,.451.388h.388A.343.343,0,0,0-.6-3.07ZM-3.2-5.264l.514-3.265.514,3.265ZM2-9.968H.518a.377.377,0,0,0-.42.42v6.51a.377.377,0,0,0,.42.42H.9a.377.377,0,0,0,.42-.42V-5.464H2c1.113,0,1.848-.441,1.848-1.554v-1.4C3.846-9.527,3.111-9.968,2-9.968Zm.63,2.761c0,.525-.273.672-.672.672h-.64V-8.9h.64c.4,0,.672.147.672.672ZM6.65-10.472h-.22a.435.435,0,0,0-.462.357L3.909-2.587a.339.339,0,0,0,.357.472h.22a.435.435,0,0,0,.462-.357L7.007-10A.339.339,0,0,0,6.65-10.472ZM-7.467,5.962V1.6l1.491,4.431a.454.454,0,0,0,.472.346h.378a.377.377,0,0,0,.42-.42V-.548a.377.377,0,0,0-.42-.42H-5.4a.377.377,0,0,0-.42.42V3.578l-1.428-4.2a.454.454,0,0,0-.472-.346H-8.16a.377.377,0,0,0-.42.42v6.51a.377.377,0,0,0,.42.42h.273A.377.377,0,0,0-7.467,5.962Zm5.071,0V-.548a.377.377,0,0,0-.42-.42h-.378a.377.377,0,0,0-.42.42v6.51a.377.377,0,0,0,.42.42h.378A.377.377,0,0,0-2.4,5.962Zm4.3-6.93H1.583a.415.415,0,0,0-.451.388L.344,4.481-.443-.58A.415.415,0,0,0-.895-.968h-.388a.343.343,0,0,0-.378.451L-.433,6a.424.424,0,0,0,.462.378H.6A.424.424,0,0,0,1.058,6L2.287-.517A.343.343,0,0,0,1.909-.968Z" transform="translate(25.442 23.881)" fill="#5f02bc"/>
    <g transform="matrix(1, 0, 0, 1, -20.29, -10.25)" filter="url(#hexagon-fill-svgrepo-com)">
      <path id="hexagon-fill-svgrepo-com-2" data-name="hexagon-fill-svgrepo-com" d="M18.806.515a4.162,4.162,0,0,1,4.012,0l16.65,9.157a4.162,4.162,0,0,1,2.157,3.647V31.291a4.163,4.163,0,0,1-2.157,3.647L22.818,44.1a4.162,4.162,0,0,1-4.012,0L2.156,34.938A4.162,4.162,0,0,1,0,31.291V13.32A4.162,4.162,0,0,1,2.156,9.672Z" transform="translate(64.9 10.25) rotate(90)" fill="none" stroke="#5f02bc" stroke-width="1.5"/>
    </g>
  </g>
</svg>
