<svg xmlns="http://www.w3.org/2000/svg" xmlns:xlink="http://www.w3.org/1999/xlink" width="85.196" height="82.124" viewBox="0 0 85.196 82.124">
  <defs>
    <filter id="hexagon-fill-svgrepo-com" x="0" y="0" width="85.196" height="82.124" filterUnits="userSpaceOnUse">
      <feOffset dy="10" input="SourceAlpha"/>
      <feGaussianBlur stdDeviation="6.5" result="blur"/>
      <feFlood flood-opacity="0.2"/>
      <feComposite operator="in" in2="blur"/>
      <feComposite in="SourceGraphic"/>
    </filter>
  </defs>
  <g id="Group_2850" data-name="Group 2850" transform="translate(20.293 10.25)">
    <g transform="matrix(1, 0, 0, 1, -20.29, -10.25)" filter="url(#hexagon-fill-svgrepo-com)">
      <path id="hexagon-fill-svgrepo-com-2" data-name="hexagon-fill-svgrepo-com" d="M18.806.515a4.162,4.162,0,0,1,4.012,0l16.65,9.157a4.162,4.162,0,0,1,2.157,3.647V31.291a4.163,4.163,0,0,1-2.157,3.647l-16.65,9.157a4.162,4.162,0,0,1-4.012,0L2.156,34.938A4.162,4.162,0,0,1,0,31.291V13.32A4.162,4.162,0,0,1,2.156,9.672Z" transform="translate(64.9 10.25) rotate(90)" fill="none" stroke="#019da8" stroke-width="1.5"/>
    </g>
    <path id="brain-fill-svgrepo-com" d="M29.757,33.787a5.088,5.088,0,0,0-2.9-4.588v-.851a4.35,4.35,0,0,0-7.978-2.4,4.35,4.35,0,0,0-7.978,2.4V29.2a5.077,5.077,0,0,0,0,9.174V38.5a4.35,4.35,0,0,0,7.978,2.4,4.35,4.35,0,0,0,7.978-2.4v-.128A5.083,5.083,0,0,0,29.757,33.787ZM15.252,41.4a2.9,2.9,0,0,1-2.884-2.589,5.094,5.094,0,0,0,.708.05H13.8a.725.725,0,1,0,0-1.45h-.725a3.627,3.627,0,0,1-1.209-7.046.725.725,0,0,0,.483-.684V28.348a2.9,2.9,0,1,1,5.8,0v6.913a4.333,4.333,0,0,0-2.9-1.112.725.725,0,1,0,0,1.45,2.9,2.9,0,0,1,0,5.8Zm9.428-3.989h-.725a.725.725,0,0,0,0,1.45h.725a5.092,5.092,0,0,0,.708-.05A2.9,2.9,0,1,1,22.5,35.6a.725.725,0,0,0,0-1.45,4.333,4.333,0,0,0-2.9,1.112V28.348a2.9,2.9,0,0,1,5.8,0v1.335a.725.725,0,0,0,.483.684,3.627,3.627,0,0,1-1.209,7.046ZM12.714,33.424a.725.725,0,0,1,0-1.45,1.815,1.815,0,0,0,1.813-1.813v-.725a.725.725,0,1,1,1.45,0v.725a3.267,3.267,0,0,1-3.264,3.264ZM25.768,32.7a.725.725,0,0,1-.725.725,3.267,3.267,0,0,1-3.264-3.264v-.725a.725.725,0,1,1,1.45,0v.725a1.815,1.815,0,0,0,1.813,1.813.725.725,0,0,1,.725.725Z" transform="translate(3.427 -12.113)" fill="#019da8"/>
  </g>
</svg>
