<svg xmlns="http://www.w3.org/2000/svg" xmlns:xlink="http://www.w3.org/1999/xlink" width="85.196" height="82.124" viewBox="0 0 85.196 82.124">
  <defs>
    <filter id="hexagon-fill-svgrepo-com" x="0" y="0" width="85.196" height="82.124" filterUnits="userSpaceOnUse">
      <feOffset dy="10" input="SourceAlpha"/>
      <feGaussianBlur stdDeviation="6.5" result="blur"/>
      <feFlood flood-opacity="0.2"/>
      <feComposite operator="in" in2="blur"/>
      <feComposite in="SourceGraphic"/>
    </filter>
  </defs>
  <g id="Group_2854" data-name="Group 2854" transform="translate(20.293 10.25)">
    <g transform="matrix(1, 0, 0, 1, -20.29, -10.25)" filter="url(#hexagon-fill-svgrepo-com)">
      <path id="hexagon-fill-svgrepo-com-2" data-name="hexagon-fill-svgrepo-com" d="M18.806.515a4.162,4.162,0,0,1,4.012,0l16.65,9.157a4.162,4.162,0,0,1,2.157,3.647V31.291a4.163,4.163,0,0,1-2.157,3.647L22.818,44.1a4.162,4.162,0,0,1-4.012,0L2.156,34.938A4.162,4.162,0,0,1,0,31.291V13.32A4.162,4.162,0,0,1,2.156,9.672Z" transform="translate(64.9 10.25) rotate(90)" fill="none" stroke="#ff006c" stroke-width="1.5"/>
    </g>
    <g id="kidney-svgrepo-com" transform="translate(12.889 11.125)">
      <g id="Group_2826" data-name="Group 2826">
        <path id="Path_21610" data-name="Path 21610" d="M38.288,20.761a2.874,2.874,0,0,0,.617-1.75,3.073,3.073,0,0,0-.583-1.7,1.751,1.751,0,0,1,0-2.122,2.7,2.7,0,0,0,.575-1.776,2.414,2.414,0,0,0-1.218-2.156,1.494,1.494,0,0,0-.647-.152,1.607,1.607,0,0,0-.972.351c-1.818,1.378-3.057,5.539-2.82,9.471.173,2.862,1.1,4.989,2.541,5.826a1.972,1.972,0,0,0,1.979.038A2.273,2.273,0,0,0,38.9,24.82a2.683,2.683,0,0,0-.613-1.873A1.674,1.674,0,0,1,38.288,20.761Z" transform="translate(-33.215 -11.096)" fill="#ff006c"/>
        <path id="Path_21611" data-name="Path 21611" d="M346.9,11.351a1.617,1.617,0,0,0-.972-.351,1.494,1.494,0,0,0-.647.152,2.424,2.424,0,0,0-1.218,2.156,2.708,2.708,0,0,0,.575,1.776,1.751,1.751,0,0,1,0,2.122,3.082,3.082,0,0,0-.583,1.7,2.874,2.874,0,0,0,.617,1.75,1.67,1.67,0,0,1,0,2.19,2.723,2.723,0,0,0-.613,1.873,2.278,2.278,0,0,0,1.137,1.966,1.972,1.972,0,0,0,1.979-.038c1.442-.837,2.368-2.96,2.541-5.826.245-3.932-.994-8.092-2.816-9.475Z" transform="translate(-330.911 -11)" fill="#ff006c"/>
        <path id="Path_21612" data-name="Path 21612" d="M207.784,177.189c-.178.186-1.488,2.359-1.691,2.714a14.208,14.208,0,0,0-2.114-3.1,9.35,9.35,0,0,1-.279,2.744,11.985,11.985,0,0,1,1.45,2.833c.008.038.034,7.192.034,7.192a.943.943,0,0,0,1.886,0v-7.327A12.482,12.482,0,0,1,208.3,179.9,9.216,9.216,0,0,1,207.784,177.189Z" transform="translate(-196.492 -169.79)" fill="#ff006c"/>
      </g>
    </g>
  </g>
</svg>
