<svg xmlns="http://www.w3.org/2000/svg" xmlns:xlink="http://www.w3.org/1999/xlink" width="85.196" height="82.124" viewBox="0 0 85.196 82.124">
  <defs>
    <filter id="hexagon-fill-svgrepo-com" x="0" y="0" width="85.196" height="82.124" filterUnits="userSpaceOnUse">
      <feOffset dy="10" input="SourceAlpha"/>
      <feGaussianBlur stdDeviation="6.5" result="blur"/>
      <feFlood flood-opacity="0.2"/>
      <feComposite operator="in" in2="blur"/>
      <feComposite in="SourceGraphic"/>
    </filter>
  </defs>
  <g id="Group_2852" data-name="Group 2852" transform="translate(20.293 10.25)">
    <g transform="matrix(1, 0, 0, 1, -20.29, -10.25)" filter="url(#hexagon-fill-svgrepo-com)">
      <path id="hexagon-fill-svgrepo-com-2" data-name="hexagon-fill-svgrepo-com" d="M18.806.515a4.162,4.162,0,0,1,4.012,0l16.65,9.157a4.162,4.162,0,0,1,2.157,3.647V31.291a4.163,4.163,0,0,1-2.157,3.647L22.818,44.1a4.162,4.162,0,0,1-4.012,0L2.156,34.938A4.162,4.162,0,0,1,0,31.291V13.32A4.162,4.162,0,0,1,2.156,9.672Z" transform="translate(64.9 10.25) rotate(90)" fill="none" stroke="#686868" stroke-width="1.5"/>
    </g>
    <path id="Subtraction_75" data-name="Subtraction 75" d="M.509,24.282h0L.5,24.259l-.005,0a.306.306,0,0,1-.041,0c-.2,0-.392-.255-.443-.594s.048-.629.231-.7l0-.022,1.673-.224a10.744,10.744,0,0,0,4.522-2.03,12.238,12.238,0,0,0,2.922-4.265l-.044-.023-.052-.03A14.051,14.051,0,0,1,7.4,14.5c-.919-1.116-.822-1.707-.82-1.713a.769.769,0,0,1,.207-.541,1.3,1.3,0,0,1,.984-.329,3.208,3.208,0,0,1,.346.019,6.534,6.534,0,0,1,.876.134l1.868-3.746.012,0a1.036,1.036,0,0,1,.054-.3,1.572,1.572,0,0,1,1.61-.875,3.415,3.415,0,0,1,1.112.2c1.229.432,2.008,1.44,1.736,2.247a1.067,1.067,0,0,1-.273.425l-1.059,4.3a9.772,9.772,0,0,0,4.8-1.853A9.4,9.4,0,0,0,21.334,7.93l.008,0-.177-.078c-.171-.077-.235-.322-.173-.655a2.185,2.185,0,0,1,.176-.521,1.773,1.773,0,0,0-.018-.4,1.555,1.555,0,0,0-.121-.355A5.16,5.16,0,0,1,20.8,3.959a1.6,1.6,0,0,1,.823-1.073.688.688,0,0,0,.232-.307.831.831,0,0,0-.026-.408,1.328,1.328,0,0,1,.167-.768,1.546,1.546,0,0,1,.681-.464l.155-.7a.313.313,0,0,1,.208-.226.411.411,0,0,1,.1-.011,1.517,1.517,0,0,1,.371.065L24,.237a.32.32,0,0,1,.236.328c-.014.134-.036.291-.066.478l0,.014a1.029,1.029,0,0,0-.054.286.635.635,0,0,0,.054.245,1.382,1.382,0,0,1,.069.7A1.369,1.369,0,0,1,24,2.818l-.1.556a2.549,2.549,0,0,1,.139,1.584,3.856,3.856,0,0,1-1.091,1.463,1.128,1.128,0,0,0-.244.225.859.859,0,0,0-.128.277l-.193.834a.479.479,0,0,1-.15.331.494.494,0,0,1-.268.063.924.924,0,0,1-.111-.006v.021a10.249,10.249,0,0,1-2.734,4.846,10.428,10.428,0,0,1-5.212,1.9l-.178.723a4.776,4.776,0,0,0,1.348.224c.321.026.631.04.921.04a5.836,5.836,0,0,0,.765-.04l.028-.247c-.064-.033-.1-.071-.1-.11,0-.121.326-.22.727-.22s.726.1.726.22a.107.107,0,0,1-.047.079,2.446,2.446,0,0,1-.085.758.648.648,0,0,1-.338.367,6.483,6.483,0,0,1-1.891.323c-.126,0-.263.007-.409.007-1.106,0-2.382-.143-2.393-.144a5.642,5.642,0,0,1-1.345.172,3.96,3.96,0,0,1-.539-.034c-.1-.014-.2-.032-.307-.057A14.938,14.938,0,0,1,6.756,22.3,12.522,12.522,0,0,1,.509,24.282ZM.448,23.251H.429c-.121.018-.2.191-.17.387s.132.325.248.325H.525c.122-.018.2-.192.172-.388S.565,23.251.448,23.251Zm16.965-7.792c-.259,0-.471.059-.471.132s.211.132.471.132.471-.059.471-.132S17.673,15.459,17.414,15.459ZM12.706,7.891c-.461,0-.792.168-.887.449-.149.437.339,1.007,1.087,1.271a2.235,2.235,0,0,0,.733.132c.461,0,.794-.168.889-.449.146-.438-.343-1.008-1.089-1.271A2.259,2.259,0,0,0,12.706,7.891Z" transform="translate(10.179 8.311)" fill="#686868"/>
  </g>
</svg>
