<svg width="64px" height="64px" viewBox="0 0 48 48" xmlns="http://www.w3.org/2000/svg" fill="" transform="matrix(1, 0, 0, -1, 0, 0)"><g id="SVGRepo_bgCarrier" stroke-width="0"></g><g id="SVGRepo_tracerCarrier" stroke-linecap="round" stroke-linejoin="round"></g><g id="SVGRepo_iconCarrier"> <title>arrow-block-up-solid</title> <g id="Layer_2" data-name="Layer 2"> <g id="invisible_box" data-name="invisible box"> <rect width="48" height="48" fill="none"></rect> </g> <g id="Q3_icons" data-name="Q3 icons"> <path d="M24,4a2.2,2.2,0,0,0-1.5.6L4.6,24.1A2,2,0,0,0,6,27.6H16.1V40a2,2,0,0,0,2,2H29.9a2,2,0,0,0,2-2V27.6H42a2,2,0,0,0,1.4-3.5L25.5,4.6A2.2,2.2,0,0,0,24,4Z"></path> </g> </g> </g></svg>