<svg xmlns="http://www.w3.org/2000/svg" width="14.477" height="13.177" viewBox="0 0 14.477 13.177">
  <g id="Group_2572" data-name="Group 2572" transform="translate(-1.192 -1.194)">
    <path id="Path_19238" data-name="Path 19238" d="M192.839,185.184h.166a1.135,1.135,0,0,0,.806-.334l6.017-6.017a1.138,1.138,0,0,0-1.607-1.61l-5.3,5.3-5.3-5.3a1.138,1.138,0,0,0-1.608,1.61l6.018,6.017A1.145,1.145,0,0,0,192.839,185.184Z" transform="translate(-184.492 -175.696)"/>
    <path id="Path_19239" data-name="Path 19239" d="M192.839,193.478h.166a1.141,1.141,0,0,0,.806-.332l6.017-6.018a1.138,1.138,0,0,0-1.607-1.611l-5.3,5.3-5.3-5.3a1.138,1.138,0,0,0-1.608,1.611l6.018,6.018A1.151,1.151,0,0,0,192.839,193.478Z" transform="translate(-184.492 -179.107)"/>
  </g>
</svg>