<svg xmlns="http://www.w3.org/2000/svg" width="19.563" height="19.563" viewBox="0 0 19.563 19.563">
  <g id="Group_2005" data-name="Group 2005" transform="translate(-1451 -1147)">
    <g id="tick-circle-svgrepo-com" transform="translate(1451 1147)">
      <path id="Path_20660" data-name="Path 20660" d="M11.032,20.813a9.782,9.782,0,1,1,9.782-9.782A9.79,9.79,0,0,1,11.032,20.813Zm0-18.2a8.417,8.417,0,1,0,8.417,8.417A8.427,8.427,0,0,0,11.032,2.615Z" transform="translate(-1.25 -1.25)" fill="#fff"/>
    </g>
    <path id="close-svgrepo-com_1_" data-name="close-svgrepo-com (1)" d="M5.33,4.657a.475.475,0,0,0-.672.672L7.4,8.075,4.658,10.82a.475.475,0,0,0,.672.672L8.075,8.747l2.745,2.745a.475.475,0,0,0,.672-.672L8.748,8.075,11.493,5.33a.475.475,0,0,0-.672-.672L8.075,7.4Z" transform="translate(1452.781 1148.707)" fill="#fff"/>
  </g>
</svg>
