<svg xmlns="http://www.w3.org/2000/svg" width="14" height="14" viewBox="0 0 14 14">
  <path id="Path_77" data-name="Path 77" d="M-14.125,10.063v1.75A2.188,2.188,0,0,1-16.312,14h-3.5A2.187,2.187,0,0,1-22,11.813V2.188A2.188,2.188,0,0,1-19.812,0h3.5a2.187,2.187,0,0,1,2.187,2.188v1.75a.437.437,0,0,1-.437.438A.437.437,0,0,1-15,3.938V2.188A1.313,1.313,0,0,0-16.312.875h-3.5a1.313,1.313,0,0,0-1.312,1.313v9.625a1.313,1.313,0,0,0,1.313,1.313h3.5A1.313,1.313,0,0,0-15,11.813v-1.75a.437.437,0,0,1,.438-.437A.437.437,0,0,1-14.125,10.063ZM-8.033,6.73a.442.442,0,0,0,0-.334.453.453,0,0,0-.1-.143l-3.5-3.5a.438.438,0,0,0-.31-.129.437.437,0,0,0-.31.129.437.437,0,0,0-.129.31.437.437,0,0,0,.129.31l2.755,2.753h-8.569a.437.437,0,0,0-.437.438A.437.437,0,0,0-18.062,7h8.569l-2.754,2.753a.437.437,0,0,0-.129.31.437.437,0,0,0,.129.31.437.437,0,0,0,.31.128.437.437,0,0,0,.31-.128l3.5-3.5A.453.453,0,0,0-8.033,6.73Z" transform="translate(22)"/>
</svg>
