<svg xmlns="http://www.w3.org/2000/svg" width="19.825" height="23.04" viewBox="0 0 19.825 23.04">
  <g id="Group_2128" data-name="Group 2128" transform="translate(3148.974 4879.239)">
    <path id="Subtraction_67" data-name="Subtraction 67" d="M334.379,8784.23h-10.4l.682-1.136h6.254v-6.754h-2.2l.682-1.135h2.08a.568.568,0,0,1,.569.566v7.322h1.762v-14.481l-.271-.3.61-1.015.649.71a.562.562,0,0,1,.148.382v15.271A.568.568,0,0,1,334.379,8784.23Zm-12.713,0h-4.1a.568.568,0,0,1-.569-.566v-16.812a.57.57,0,0,1,.569-.569h14.863l-.682,1.136h-.726v1.208l-1.136,1.889v-3.1h-2.269v4.381h1.5l-.682,1.136h-6.94a.568.568,0,0,1-.569-.566v-4.95h-2.789v15.677H319.9v-7.322a.568.568,0,0,1,.569-.566h6.6l-.682,1.135h-5.353v6.754h1.294l-.578.962a1.017,1.017,0,0,0-.083.173Zm.394-16.812v4.381h4.423v-4.381Z" transform="translate(-3465.974 -13643.283)"/>
    <rect id="Rectangle_13171" data-name="Rectangle 13171" width="1.464" height="26" rx="0.732" transform="translate(-3130.403 -4879.239) rotate(31)"/>
  </g>
</svg>
