<svg xmlns="http://www.w3.org/2000/svg" width="50" height="40" viewBox="0 0 30.193 25.222">
  <g id="Polygon_131" data-name="Polygon 131" fill="#fff">
    <path d="M 26.66525459289551 24.7221736907959 L 3.527973890304565 24.7221736907959 C 2.980753898620605 24.7221736907959 2.492933988571167 24.43796348571777 2.223063945770264 23.9619140625 C 1.953203916549683 23.48587417602539 1.959873914718628 22.92134284973145 2.240913867950439 22.45181274414062 L 13.80954360961914 3.123883247375488 C 14.08300399780273 2.66701340675354 14.56415367126465 2.394253253936768 15.09661388397217 2.394253253936768 C 15.62907409667969 2.394253253936768 16.1102237701416 2.66701340675354 16.3836841583252 3.123883247375488 L 27.95232391357422 22.45181274414062 C 28.23336410522461 22.92134284973145 28.24003410339355 23.48587417602539 27.97016334533691 23.9619140625 C 27.70029449462891 24.43796348571777 27.21247482299805 24.7221736907959 26.66525459289551 24.7221736907959 Z" stroke="none"/>
    <path d="M 15.09661388397217 2.894252777099609 C 14.92616367340088 2.894252777099609 14.50134372711182 2.941654205322266 14.23856353759766 3.380672454833984 L 2.669933319091797 22.70860290527344 C 2.399873733520508 23.15979385375977 2.571643829345703 23.56294250488281 2.65803337097168 23.71533393859863 C 2.744424819946289 23.86772346496582 3.002134323120117 24.2221736907959 3.527973175048828 24.2221736907959 L 26.66525459289551 24.2221736907959 C 27.19109344482422 24.2221736907959 27.44880294799805 23.86772346496582 27.53519439697266 23.71533393859863 C 27.62158393859863 23.56294250488281 27.79336357116699 23.15979385375977 27.5233039855957 22.70860290527344 L 15.95466423034668 3.380672454833984 C 15.69188404083252 2.941654205322266 15.26706409454346 2.894252777099609 15.09661388397217 2.894252777099609 M 15.09661388397217 1.894252777099609 C 15.76056098937988 1.894252777099609 16.42450904846191 2.218532562255859 16.81270408630371 2.867094039916992 L 28.38134384155273 22.19502258300781 C 29.17925453186035 23.52810287475586 28.2188835144043 25.2221736907959 26.66525459289551 25.2221736907959 L 3.527973175048828 25.2221736907959 C 1.974344253540039 25.2221736907959 1.013973236083984 23.52810287475586 1.811893463134766 22.19502258300781 L 13.38052368164062 2.867094039916992 C 13.76871871948242 2.218532562255859 14.43266677856445 1.894252777099609 15.09661388397217 1.894252777099609 Z" stroke="none" fill="#707070"/>
  </g>
</svg>
