<svg xmlns="http://www.w3.org/2000/svg" width="15.15" height="14.879" viewBox="0 0 15.15 14.879">
  <path id="export" d="M142.73,140.194h-1.042a.15.15,0,0,0-.149.149v1.2h-12.2v-12.2h12.2v1.2a.151.151,0,0,0,.149.149h1.042a.149.149,0,0,0,.149-.149v-1.941a.594.594,0,0,0-.595-.595H128.595a.594.594,0,0,0-.595.595v13.69a.594.594,0,0,0,.595.595h13.69a.594.594,0,0,0,.595-.595v-1.941A.149.149,0,0,0,142.73,140.194Zm.36-4.876-2.749-2.17a.155.155,0,0,0-.252.122v1.472h-6.083a.155.155,0,0,0-.155.155v1.085a.155.155,0,0,0,.155.155h6.083v1.472a.155.155,0,0,0,.252.122l2.749-2.17a.155.155,0,0,0,0-.244Z" transform="translate(-128 -128)"/>
</svg>
