<svg id="eye-svgrepo-com_1_" data-name="eye-svgrepo-com (1)" xmlns="http://www.w3.org/2000/svg" width="22.319" height="13.503" viewBox="0 0 22.319 13.503">
  <g id="Group_208" data-name="Group 208" transform="translate(0 0)">
    <g id="Group_207" data-name="Group 207" transform="translate(0 0)">
      <path id="Path_145" data-name="Path 145" d="M22.168,103.978a.786.786,0,0,0-.023-.957c-3.376-4.15-7.02-6.255-10.838-6.255-6.473,0-10.97,6.031-11.156,6.287a.786.786,0,0,0,.023.957c3.371,4.155,7.015,6.259,10.833,6.259C17.48,110.269,21.976,104.238,22.168,103.978Zm-11.161,4.729c-3.18,0-6.277-1.749-9.22-5.193,1.153-1.362,4.815-5.184,9.521-5.184,3.18,0,6.277,1.749,9.22,5.193C19.375,104.885,15.712,108.707,11.007,108.707Z" transform="translate(0 -96.767)"/>
      <path id="Path_146" data-name="Path 146" d="M161.785,157.867a3.968,3.968,0,1,0,3.968,3.968A3.974,3.974,0,0,0,161.785,157.867Zm0,6.373a2.405,2.405,0,1,1,2.405-2.405A2.409,2.409,0,0,1,161.785,164.24Z" transform="translate(-150.628 -155.084)"/>
    </g>
  </g>
</svg>
