<svg xmlns="http://www.w3.org/2000/svg" width="41.524" height="41.5" viewBox="0 0 41.524 41.5">
  <g id="health-svgrepo-com" transform="translate(-0.716 -0.75)">
    <path id="Path_21364" data-name="Path 21364" d="M15.62,41h11.7c9.75,0,13.65-3.9,13.65-13.65V15.65C40.97,5.9,37.07,2,27.32,2H15.62C5.87,2,1.97,5.9,1.97,15.65v11.7C1.97,37.1,5.87,41,15.62,41Z" fill="none" stroke="#fff" stroke-linecap="round" stroke-linejoin="round" stroke-width="2.5"/>
    <path id="Path_21365" data-name="Path 21365" d="M1.97,14.709l11.7-.039a4.248,4.248,0,0,1,3.646,2.476l2.223,5.616c.507,1.268,1.306,1.268,1.813,0l4.466-11.329c.429-1.092,1.229-1.131,1.774-.1l2.028,3.841a4.3,4.3,0,0,0,3.452,2.087H40.99" transform="translate(0 8.157)" fill="none" stroke="#fff" stroke-linecap="round" stroke-linejoin="round" stroke-width="2.5"/>
  </g>
</svg>
