<svg xmlns="http://www.w3.org/2000/svg" width="21.086" height="21.086" viewBox="0 0 21.086 21.086">
  <path id="history-svgrepo-com_1_" data-name="history-svgrepo-com (1)" d="M21.67,12.127a10.543,10.543,0,1,1-21.086,0,.738.738,0,0,1,1.477,0,9.079,9.079,0,1,0,2.1-5.8h1.7a.738.738,0,1,1,0,1.476H2.381a.738.738,0,0,1-.739-.738V3.59a.738.738,0,0,1,1.477,0V5.271A10.541,10.541,0,0,1,21.67,12.127Zm-6.9,4a.738.738,0,0,1-1.044,0L10.5,12.9a.735.735,0,0,1-.293-.587V6.357a.739.739,0,0,1,1.478,0V12l3.082,3.083a.738.738,0,0,1,0,1.044Z" transform="translate(-0.584 -1.583)"/>
</svg>
