<svg xmlns="http://www.w3.org/2000/svg" width="45.149" height="45.149" viewBox="0 0 45.149 45.149">
  <g id="hospital-svgrepo-com" transform="translate(-0.5 -0.5)">
    <path id="Path_21348" data-name="Path 21348" d="M2,22H44.149" transform="translate(0 22.149)" fill="none" stroke="#fff" stroke-linecap="round" stroke-linejoin="round" stroke-width="3"/>
    <path id="Path_21349" data-name="Path 21349" d="M32.5,2H11.43C5.107,2,3,5.772,3,10.43v33.72H40.934V10.43C40.934,5.772,38.827,2,32.5,2Z" transform="translate(1.107)" fill="none" stroke="#fff" stroke-linecap="round" stroke-linejoin="round" stroke-width="3"/>
    <path id="Path_21350" data-name="Path 21350" d="M19.675,15h-8.7A1.992,1.992,0,0,0,8.99,16.981V29.752H21.635V16.981A1.948,1.948,0,0,0,19.675,15Z" transform="translate(7.741 14.397)" fill="none" stroke="#fff" stroke-linecap="round" stroke-linejoin="round" stroke-width="3"/>
    <path id="Path_21351" data-name="Path 21351" d="M12,6V16.537" transform="translate(11.075 4.43)" fill="none" stroke="#fff" stroke-linecap="round" stroke-linejoin="round" stroke-width="3"/>
    <path id="Path_21352" data-name="Path 21352" d="M9.5,8.5H20.037" transform="translate(8.306 7.199)" fill="none" stroke="#fff" stroke-linecap="round" stroke-linejoin="round" stroke-width="3"/>
  </g>
</svg>
