<svg id="list-svgrepo-com_1_" data-name="list-svgrepo-com (1)" xmlns="http://www.w3.org/2000/svg" width="16.002" height="16.002" viewBox="0 0 16.002 16.002">
  <g id="Group_67" data-name="Group 67">
    <path id="Path_19175" data-name="Path 19175" d="M6.3,0H.681A.684.684,0,0,0,0,.681V6.3a.684.684,0,0,0,.681.681H6.3A.684.684,0,0,0,6.98,6.3V.681A.684.684,0,0,0,6.3,0ZM5.619,5.652H1.329V1.329h4.29V5.652Z"/>
    <path id="Path_19176" data-name="Path 19176" d="M6.3,275.7H.681a.684.684,0,0,0-.681.681V282a.684.684,0,0,0,.681.681H6.3a.679.679,0,0,0,.681-.648v-5.652A.684.684,0,0,0,6.3,275.7Zm-.681,5.652H1.329v-4.323h4.29v4.323Z" transform="translate(0 -266.678)"/>
    <path id="Path_19177" data-name="Path 19177" d="M242.081,86.661h6.741a.681.681,0,1,0,0-1.361h-6.741a.681.681,0,1,0,0,1.361Z" transform="translate(-233.5 -82.509)"/>
    <path id="Path_19178" data-name="Path 19178" d="M248.822,361h-6.741a.681.681,0,1,0,0,1.361h6.741a.681.681,0,1,0,0-1.361Z" transform="translate(-233.5 -349.186)"/>
  </g>
</svg>
