<svg id="Group_1909" data-name="Group 1909" xmlns="http://www.w3.org/2000/svg" width="17.393" height="17.384" viewBox="0 0 17.393 17.384">
  <path id="Path_20761" data-name="Path 20761" d="M17.369.8A.454.454,0,0,0,17.35.749L17.338.717A.664.664,0,0,0,17.315.65a.607.607,0,0,0-.032-.062L17.267.558A.511.511,0,0,0,17.24.51a.82.82,0,0,0-.226-.226.47.47,0,0,0-.046-.026L16.941.244A.668.668,0,0,0,16.874.21a.582.582,0,0,0-.062-.02L16.78.18a.486.486,0,0,0-.058-.016.817.817,0,0,0-.143-.019c-.006,0-.012,0-.016,0h-3.39a.815.815,0,0,0,0,1.631H14.6L10.965,5.4a6.742,6.742,0,1,0,1.159,1.154l3.639-3.631V4.351a.815.815,0,0,0,1.631,0V.962A.825.825,0,0,0,17.369.8ZM6.782,15.9a5.154,5.154,0,1,1,5.154-5.154A5.16,5.16,0,0,1,6.782,15.9Z" transform="translate(0 -0.14)"/>
</svg>
