<svg id="naBlue" data-name="Group 2762" xmlns="http://www.w3.org/2000/svg" width="29.708" height="29.708" viewBox="0 0 29.708 29.708">
  <path id="Path_20660" data-name="Path 20660" d="M16.1,30.958A14.854,14.854,0,1,1,30.958,16.1,14.866,14.866,0,0,1,16.1,30.958Zm0-27.635A12.781,12.781,0,1,0,28.885,16.1,12.8,12.8,0,0,0,16.1,3.323Z" transform="translate(-1.25 -1.25)" fill="#000000"/>
  <path id="Path_20871" data-name="Path 20871" d="M5.635,2.212H4.34L1.724-2.215l-.027,0V2.212H.4V-4.266H1.7L4.313.157l.027,0V-4.266H5.635Zm1.811.556H6.182L8.558-4.266H9.821ZM13.994.815H11.721l-.44,1.4H9.968L12.2-4.266h1.33l2.22,6.477H14.434ZM12.041-.2h1.633l-.8-2.545h-.027Z" transform="translate(7.194 14.895)" fill="#000000"/>
</svg>
