<svg xmlns="http://www.w3.org/2000/svg" width="12.858" height="14.128" viewBox="0 0 12.858 14.128">
  <g id="Group_2305" data-name="Group 2305" transform="translate(13.832 -0.972) rotate(90)">
    <path id="Path_19238" data-name="Path 19238" d="M6.982,0h.162A1.108,1.108,0,0,1,7.93.326L13.8,6.2a1.11,1.11,0,0,1-1.568,1.571L7.065,2.6,1.893,7.768A1.11,1.11,0,0,1,.324,6.2L6.2.326A1.117,1.117,0,0,1,6.982,0Z" transform="translate(0.972 5.738)"/>
    <path id="Path_19239" data-name="Path 19239" d="M6.982,0h.162A1.113,1.113,0,0,1,7.93.324L13.8,6.2a1.11,1.11,0,0,1-1.568,1.572L7.065,2.6,1.893,7.769A1.111,1.111,0,0,1,.324,6.2L6.2.324A1.123,1.123,0,0,1,6.982,0Z" transform="translate(0.972 0.973)"/>
  </g>
</svg>
