<svg xmlns="http://www.w3.org/2000/svg" width="23.678" height="32.251" viewBox="0 0 23.678 32.251">
  <g id="Group_2513" data-name="Group 2513" transform="translate(-1537.824 -131.61)">
    <path id="doctor-svgrepo-com_1_" data-name="doctor-svgrepo-com (1)" d="M13.52,6.26h2.26V8.52H13.52v2.26H11.26V8.52H9V6.26h2.26V4h2.26Z" transform="translate(1537.61 127.61)"/>
    <path id="moon-svgrepo-com" d="M15.3,27.024a11.879,11.879,0,0,1-1.49-.1A12.026,12.026,0,0,1,3.438,16.556,11.9,11.9,0,0,1,12.771,3.341,1.681,1.681,0,0,1,14.507,4a1.735,1.735,0,0,1,.068,1.913,7.243,7.243,0,0,0-.9,4.742A7.162,7.162,0,0,0,24.4,15.722a1.735,1.735,0,0,1,1.913.1,1.653,1.653,0,0,1,.656,1.722A11.889,11.889,0,0,1,15.3,27.024Zm-2.856-21.4a9.908,9.908,0,1,0,12.3,12.3,9.188,9.188,0,0,1-12.3-12.3Z" transform="translate(1534.49 136.838)"/>
  </g>
</svg>
