<svg xmlns="http://www.w3.org/2000/svg" width="30" height="30" viewBox="0 0 34 30">
  <g id="Polygon_98" data-name="Polygon 98" fill="#fff">
    <path d="M 28.85181045532227 29.50000381469727 L 5.148190021514893 29.50000381469727 C 4.248589992523193 29.50000381469727 3.441099882125854 29.03596496582031 2.98816990852356 28.25870513916016 C 2.535239934921265 27.48144340515137 2.529619932174683 26.55014419555664 2.973129987716675 25.76747512817383 L 14.8249397277832 4.852514266967773 C 15.2746696472168 4.058864116668701 16.0877799987793 3.585044384002686 17 3.585044384002686 C 17.91221046447754 3.585044384002686 18.72532081604004 4.058864116668701 19.1750602722168 4.852514266967773 L 31.02687072753906 25.76747512817383 C 31.47038078308105 26.55014419555664 31.46475982666016 27.48144340515137 31.0118293762207 28.25870513916016 C 30.55890083312988 29.03596496582031 29.75140953063965 29.50000381469727 28.85181045532227 29.50000381469727 Z" stroke="none"/>
    <path d="M 17 4.085033416748047 C 16.27021980285645 4.085033416748047 15.6197395324707 4.464084625244141 15.25995063781738 5.099004745483398 L 3.408140182495117 26.01397323608398 C 3.053329467773438 26.64011383056641 3.057830810546875 27.38515472412109 3.420169830322266 28.0069637298584 C 3.782520294189453 28.62877464294434 4.428510665893555 29.00000381469727 5.148189544677734 29.00000381469727 L 28.85181045532227 29.00000381469727 C 29.57148933410645 29.00000381469727 30.21747970581055 28.62877464294434 30.57983016967773 28.0069637298584 C 30.94216918945312 27.38515472412109 30.94667053222656 26.64011383056641 30.59185981750488 26.01397323608398 L 18.74005126953125 5.099014282226562 C 18.3802604675293 4.464094161987305 17.72977066040039 4.085033416748047 17 4.085033416748047 M 16.99999618530273 3.085039138793945 C 18.01773834228516 3.085039138793945 19.03548049926758 3.592023849487305 19.61006927490234 4.605995178222656 L 31.46187973022461 25.52096366882324 C 32.59516143798828 27.52086448669434 31.15048980712891 30.00000381469727 28.85181045532227 30.00000381469727 L 5.148189544677734 30.00000381469727 C 2.849510192871094 30.00000381469727 1.404838562011719 27.52086448669434 2.538120269775391 25.52096366882324 L 14.38993072509766 4.605995178222656 C 14.96451568603516 3.592023849487305 15.98225593566895 3.085039138793945 16.99999618530273 3.085039138793945 Z" stroke="none" fill="#707070"/>
  </g>
</svg>
