<!DOCTYPE svg PUBLIC "-//W3C//DTD SVG 1.1//EN" "http://www.w3.org/Graphics/SVG/1.1/DTD/svg11.dtd">

<!-- Uploaded to: SVG Repo, www.svgrepo.com, Transformed by: SVG Repo Mixer Tools -->
<svg fill="#FFFFFF" height="64px" width="64px" version="1.1" id="Capa_1" xmlns="http://www.w3.org/2000/svg" xmlns:xlink="http://www.w3.org/1999/xlink" viewBox="0 0 59.999 59.999" xml:space="preserve">

<g id="SVGRepo_bgCarrier" stroke-width="0"/>

<g id="SVGRepo_tracerCarrier" stroke-linecap="round" stroke-linejoin="round"/>

<g id="SVGRepo_iconCarrier"> <g> <g> <path d="M59.96,28.502c-0.232-1.427-1.552-2.503-3.067-2.503h-1.23C53.879,14.499,44.559,5.538,33,4.203V3.107 c0-1.516-1.076-2.835-2.503-3.067c-0.88-0.142-1.768,0.102-2.439,0.674C27.385,1.285,27,2.118,27,2.999v1.204 C15.44,5.538,6.12,14.499,4.337,25.999h-1.23c-1.516,0-2.835,1.076-3.067,2.503c-0.143,0.879,0.103,1.768,0.674,2.439 S2.118,31.999,3,31.999h1.087C5.031,44.389,14.656,54.397,27,55.815v1.077c0,1.516,1.076,2.835,2.503,3.067 c0.165,0.026,0.329,0.04,0.493,0.04c0.711,0,1.4-0.249,1.946-0.714C32.614,58.714,33,57.881,33,56.999v-1.184 c12.343-1.418,21.969-11.426,22.913-23.816H57c0.882,0,1.715-0.386,2.286-1.058S60.102,29.381,59.96,28.502z M33,6.194 C43.467,7.502,51.914,15.603,53.661,26H51.59C49.867,16.647,42.404,9.515,33,8.231V6.194z M33,10.231 C41.303,11.477,47.903,17.76,49.573,26H33V10.231z M27,6.194v2.037C17.596,9.515,10.133,16.647,8.41,26H6.339 C8.086,15.603,16.533,7.501,27,6.194z M27,10.231V26H10.426C12.096,17.76,18.697,11.477,27,10.231z M27,53.806 C15.766,52.408,7.019,43.289,6.088,31.999h2.053C9.068,42.119,16.947,50.379,27,51.764V53.806z M27,49.767 c-8.952-1.358-15.965-8.738-16.873-17.768H27V49.767z M33,53.806v-2.042c10.052-1.385,17.931-9.646,18.859-19.765h2.053 C52.98,43.289,44.233,52.408,33,53.806z M33,49.767V31.999h16.873C48.965,41.029,41.952,48.409,33,49.767z M57.762,29.647 C57.572,29.871,57.293,30,56.999,30h-0.985h-4.017H32.772C31.794,30,31,30.795,31,31.772v20.226v3.997V57 c0,0.294-0.129,0.572-0.353,0.763c-0.229,0.192-0.522,0.271-0.822,0.223C29.362,57.91,29,57.43,29,56.892v-0.897v-3.997V31.772 C29,30.794,28.205,30,27.228,30H8.002H3.985H3c-0.294,0-0.572-0.129-0.763-0.353c-0.193-0.228-0.272-0.52-0.223-0.822 C2.089,28.362,2.569,28,3.107,28h0.951h4.026h19.143c0.978,0,1.772-0.795,1.772-1.772V8.001V4.004V2.999 c0-0.294,0.129-0.572,0.353-0.763c0.228-0.193,0.519-0.274,0.822-0.223C30.637,2.089,31,2.569,31,3.107v0.897v3.997v18.226 c0,0.978,0.795,1.772,1.772,1.772h19.143h4.026h0.951c0.538,0,1.018,0.362,1.093,0.825C58.035,29.127,57.956,29.419,57.762,29.647 z"/> </g> </g> </g>

</svg>