<svg xmlns="http://www.w3.org/2000/svg" width="71.397" height="32.863" viewBox="0 0 71.397 32.863">
  <path id="Subtraction_64" data-name="Subtraction 64" d="M57.453,32.863a19.5,19.5,0,0,1-2.98-.225l.027.036H45.048V27.3H30.613v-.135l7.8-7.595c3.5-3.518,6.188-6.532,6.188-10.6,0-3.991-2.494-7.213-6.673-8.618H53.261l-.052.1A18.058,18.058,0,0,1,57.3,0c7.32,0,12.871,4.343,13.812,10.807h-6.6A7.117,7.117,0,0,0,57.322,5.5c-5.2,0-8.3,4.017-8.3,10.746,0,6.842,3.272,11.093,8.541,11.093,4.3,0,7.279-2.654,7.408-6.6l.021-.507H58.149V15.386H71.4v3.589C71.4,27.671,66.185,32.863,57.453,32.863ZM6.7,32.675H0V.344H13.221c.33,0,.655.008.965.024L14.177.352H28.56a9.961,9.961,0,0,0-7.153,9.714v.111h6.209v-.111a5.079,5.079,0,0,1,1.529-3.7A5.518,5.518,0,0,1,33.006,4.89c2.9,0,5.08,1.869,5.08,4.346,0,2.23-.95,3.833-4.237,7.149L21.784,28.129v4.545H18.143l-5.962-11.83H6.7v11.83Zm0-27.044V15.938h5.877c3.347,0,5.346-1.927,5.346-5.156,0-3.129-2.123-5.151-5.41-5.151Z"/>
</svg>
