<svg xmlns="http://www.w3.org/2000/svg" width="17.947" height="17.947" viewBox="0 0 17.947 17.947">
  <g id="save-svgrepo-com" transform="translate(0 0)">
    <path id="Path_20804" data-name="Path 20804" d="M17.8,1.727,16.393.185A.568.568,0,0,0,15.974,0H.568A.568.568,0,0,0,0,.568V17.379a.568.568,0,0,0,.568.568H17.379a.568.568,0,0,0,.568-.568V2.11A.568.568,0,0,0,17.8,1.727Zm-4.912-.592v4.38H10.619V1.135Zm-3.4,0v4.38H5.06V1.135Zm4.431,15.676H4.033V10.057h9.881v6.754Zm2.9,0H15.05V9.49a.568.568,0,0,0-.568-.568H3.465A.568.568,0,0,0,2.9,9.49v7.322H1.135V1.135H3.925V6.084a.568.568,0,0,0,.568.568h8.962a.568.568,0,0,0,.568-.568V1.135h1.7L16.812,2.33Z" transform="translate(0 0)"/>
  </g>
</svg>
