<svg xmlns="http://www.w3.org/2000/svg" width="44.844" height="44.843" viewBox="0 0 44.844 44.843">
  <g id="settings-svgrepo-com" transform="translate(-9.289 -8.595)">
    <path id="Path_21361" data-name="Path 21361" d="M10.538,35.02l3.358.369a18.091,18.091,0,0,0,2.145,5.15l-2.049,2.549a1.4,1.4,0,0,0,.1,1.869l3.7,3.693a1.4,1.4,0,0,0,1.864.1L22.229,46.7a18.182,18.182,0,0,0,5.032,2.1l.373,3.384a1.4,1.4,0,0,0,1.393,1.249h5.237a1.4,1.4,0,0,0,1.393-1.247l.366-3.316a18.2,18.2,0,0,0,5.228-2.116l2.578,2.061a1.4,1.4,0,0,0,1.864-.1L49.4,45.026a1.4,1.4,0,0,0,.1-1.871l-2.032-2.522a18.082,18.082,0,0,0,2.21-5.261l3.2-.35a1.4,1.4,0,0,0,1.25-1.393V28.407a1.4,1.4,0,0,0-1.249-1.393l-3.2-.35a18.142,18.142,0,0,0-2.2-5.279L49.5,18.878a1.4,1.4,0,0,0-.1-1.871l-3.705-3.693a1.4,1.4,0,0,0-1.864-.1l-2.552,2.04a18.194,18.194,0,0,0-5.256-2.131l-.364-3.279A1.4,1.4,0,0,0,34.264,8.6H29.027a1.4,1.4,0,0,0-1.393,1.247l-.371,3.348a18.165,18.165,0,0,0-5.02,2.1l-2.594-2.071a1.4,1.4,0,0,0-1.864.1L14.08,17.009a1.4,1.4,0,0,0-.1,1.871l2.068,2.571a18.074,18.074,0,0,0-2.161,5.195l-3.348.369a1.4,1.4,0,0,0-1.249,1.393v5.221A1.4,1.4,0,0,0,10.538,35.02Zm1.554-5.36,3.105-.342a1.4,1.4,0,0,0,1.225-1.139,15.374,15.374,0,0,1,2.5-6.017,1.4,1.4,0,0,0-.059-1.676L16.952,18.1l1.925-1.92,2.4,1.918a1.4,1.4,0,0,0,1.666.062,15.477,15.477,0,0,1,5.862-2.447,1.4,1.4,0,0,0,1.129-1.222l.343-3.1h2.727l.338,3.047A1.4,1.4,0,0,0,34.5,15.67a15.473,15.473,0,0,1,6.08,2.464,1.4,1.4,0,0,0,1.663-.063l2.36-1.886L46.527,18.1l-1.868,2.321a1.4,1.4,0,0,0-.056,1.682A15.35,15.35,0,0,1,47.149,28.2a1.4,1.4,0,0,0,1.225,1.141l2.955.324v2.709l-2.961.324a1.4,1.4,0,0,0-1.226,1.139,15.331,15.331,0,0,1-2.553,6.075,1.4,1.4,0,0,0,.055,1.684l1.883,2.337L44.6,45.85l-2.384-1.906a1.4,1.4,0,0,0-1.662-.064A15.456,15.456,0,0,1,34.5,46.326a1.4,1.4,0,0,0-1.152,1.226l-.339,3.083H30.282L29.938,47.5a1.4,1.4,0,0,0-1.129-1.223,15.493,15.493,0,0,1-5.872-2.454,1.4,1.4,0,0,0-1.668.06l-2.377,1.9-1.925-1.92,1.9-2.36a1.4,1.4,0,0,0,.06-1.676,15.341,15.341,0,0,1-2.492-5.977,1.4,1.4,0,0,0-1.225-1.138L12.1,32.37V29.66Z" transform="translate(0 0)" fill="#fff"/>
  </g>
</svg>
