<svg xmlns="http://www.w3.org/2000/svg" width="22.812" height="22.812" viewBox="0 0 22.812 22.812">
  <g id="tick-circle-svgrepo-com" transform="translate(-1.25 -1.25)">
    <path id="Path_20660" data-name="Path 20660" d="M12.656,24.062A11.406,11.406,0,1,1,24.062,12.656,11.415,11.415,0,0,1,12.656,24.062Zm0-21.22a9.814,9.814,0,1,0,9.814,9.814A9.826,9.826,0,0,0,12.656,2.842Z" fill="#37C2AD"/>
    <path id="Path_20661" data-name="Path 20661" d="M10.8,16.017a.8.8,0,0,1-.562-.233l-3-3a.8.8,0,1,1,1.125-1.125L10.8,14.1l5.454-5.454a.8.8,0,0,1,1.125,1.125L11.36,15.784A.8.8,0,0,1,10.8,16.017Z" transform="translate(0.351 0.437)" fill="#37C2AD"/>
  </g>
</svg>
