<svg xmlns="http://www.w3.org/2000/svg" width="54.67" height="39.484" viewBox="0 0 54.67 39.484">
  <g id="ambulance-svgrepo-com_1_" data-name="ambulance-svgrepo-com (1)" transform="translate(-6 -12)">
    <path id="Path_21924" data-name="Path 21924" d="M6,18.556A4.556,4.556,0,0,1,10.556,14h24.3a4.556,4.556,0,0,1,4.556,4.556v3.037h8.683a4.556,4.556,0,0,1,3.09,1.208l8.021,7.4a4.555,4.555,0,0,1,1.466,3.348V45.891H51.558V42.854h6.074v-9.3a1.518,1.518,0,0,0-.489-1.116l-8.021-7.4a1.519,1.519,0,0,0-1.03-.4H39.409V42.854h3.037v3.037H22.7V42.854H36.372v-24.3a1.519,1.519,0,0,0-1.519-1.519h-24.3a1.519,1.519,0,0,0-1.519,1.519v24.3h4.556v3.037H6Z" transform="translate(0 1.037)" fill="#fff" fill-rule="evenodd"/>
    <path id="Path_21925" data-name="Path 21925" d="M16.074,39.112a3.037,3.037,0,1,0-3.037-3.037A3.037,3.037,0,0,0,16.074,39.112Zm0,3.037A6.074,6.074,0,1,0,10,36.074,6.075,6.075,0,0,0,16.074,42.149Z" transform="translate(2.074 9.335)" fill="#fff" fill-rule="evenodd"/>
    <path id="Path_21926" data-name="Path 21926" d="M35.074,39.112a3.037,3.037,0,1,0-3.037-3.037A3.037,3.037,0,0,0,35.074,39.112Zm0,3.037A6.074,6.074,0,1,0,29,36.074,6.075,6.075,0,0,0,35.074,42.149Z" transform="translate(11.928 9.335)" fill="#fff" fill-rule="evenodd"/>
    <path id="Path_21927" data-name="Path 21927" d="M48.261,29.037H27V26H48.261Z" transform="translate(10.891 7.261)" fill="#fff" fill-rule="evenodd"/>
    <path id="Path_21928" data-name="Path 21928" d="M17.519,18a1.519,1.519,0,0,1,1.519,1.519V31.667a1.519,1.519,0,1,1-3.037,0V19.519A1.519,1.519,0,0,1,17.519,18Z" transform="translate(5.186 3.112)" fill="#fff" fill-rule="evenodd"/>
    <path id="Path_21929" data-name="Path 21929" d="M31.519,16a1.519,1.519,0,0,1,1.519,1.519v4.556H30V17.519A1.519,1.519,0,0,1,31.519,16Z" transform="translate(12.447 2.074)" fill="#fff" fill-rule="evenodd"/>
    <path id="Path_21930" data-name="Path 21930" d="M12,23.519A1.519,1.519,0,0,1,13.519,22H25.667a1.519,1.519,0,1,1,0,3.037H13.519A1.519,1.519,0,0,1,12,23.519Z" transform="translate(3.112 5.186)" fill="#fff" fill-rule="evenodd"/>
    <path id="Path_21931" data-name="Path 21931" d="M35.074,21.037H29V18h6.074Z" transform="translate(11.928 3.112)" fill="#fff" fill-rule="evenodd"/>
    <path id="Path_21932" data-name="Path 21932" d="M31.519,15.037,33.037,12H30Z" transform="translate(12.447)" fill="#fff" fill-rule="evenodd"/>
    <path id="Path_21933" data-name="Path 21933" d="M33.707,15.221l3.221-1.074L34.781,12Z" transform="translate(14.369)" fill="#fff" fill-rule="evenodd"/>
    <path id="Path_21934" data-name="Path 21934" d="M34,17.519l3.037,1.519V16Z" transform="translate(14.521 2.074)" fill="#fff" fill-rule="evenodd"/>
  </g>
</svg>
