<svg xmlns="http://www.w3.org/2000/svg" width="45.841" height="40.974" viewBox="0 0 45.841 40.974">
  <g id="ambulance-svgrepo-com" transform="translate(0 -27.182)">
    <g id="Group_2922" data-name="Group 2922" transform="translate(10.754 40.011)">
      <path id="Path_22043" data-name="Path 22043" d="M354.594,181.5h-7.445a1.352,1.352,0,0,1-1.352-1.352v-8.33a1.352,1.352,0,0,1,1.352-1.352h.9a1.352,1.352,0,0,1,.93.371l6.542,6.206a1.351,1.351,0,0,1,.408.791,1.622,1.622,0,0,1,.016.23v2.085A1.352,1.352,0,0,1,354.594,181.5Zm-6.093-2.7h4.742v-.189l-4.742-4.5V178.8Z" transform="translate(-325.59 -170.466)" fill="#fff"/>
      <path id="Path_22044" data-name="Path 22044" d="M153.921,201.407a1.352,1.352,0,0,1-1.352-1.352v-5.813a1.352,1.352,0,0,1,2.7,0v5.813A1.352,1.352,0,0,1,153.921,201.407Z" transform="translate(-149.662 -190.882)" fill="#fff"/>
      <path id="Path_22045" data-name="Path 22045" d="M127.271,228.058h-5.813a1.352,1.352,0,0,1,0-2.7h5.813a1.352,1.352,0,0,1,0,2.7Z" transform="translate(-120.106 -220.44)" fill="#fff"/>
    </g>
    <path id="Path_22047" data-name="Path 22047" d="M44.84,44.184a1.346,1.346,0,0,0-.183-.228l-8.277-8.281a1.352,1.352,0,0,0-.956-.4H32.312a1.352,1.352,0,1,0,0,2.7h2.552l7.768,7.773a3.647,3.647,0,0,1,.5,1.853V60.384H39.7a6.419,6.419,0,0,0-12.55,0H17.47a6.419,6.419,0,0,0-12.55,0H2.7V40.444c0-4.289,4.573-4.622,5.975-4.622H26.094V49.693a1.352,1.352,0,1,0,2.7,0V31.675a4.493,4.493,0,0,0-8.986,0v1.443H8.679C3.407,33.118,0,35.993,0,40.444V61.736a1.352,1.352,0,0,0,1.352,1.352H4.919a6.419,6.419,0,0,0,12.55,0h9.685a6.419,6.419,0,0,0,12.55,0h4.785a1.352,1.352,0,0,0,1.352-1.352V47.608A6.345,6.345,0,0,0,44.84,44.184ZM22.515,31.675a1.789,1.789,0,1,1,3.578,0v1.443H22.515V31.675ZM11.194,65.452a3.716,3.716,0,1,1,3.716-3.716A3.72,3.72,0,0,1,11.194,65.452Zm22.235,0a3.72,3.72,0,0,1-3.716-3.715h0a3.716,3.716,0,1,1,3.716,3.717Z" fill="#fff"/>
  </g>
</svg>
