<svg xmlns="http://www.w3.org/2000/svg" xmlns:xlink="http://www.w3.org/1999/xlink" width="70" height="70" viewBox="0 0 113.771 108.765">
  <defs>
    <filter id="hexagon-fill-svgrepo-com" x="0" y="0" width="113.771" height="108.765" filterUnits="userSpaceOnUse">
      <feOffset dy="10" input="SourceAlpha"/>
      <feGaussianBlur stdDeviation="6.5" result="blur"/>
      <feFlood flood-opacity="0.2"/>
      <feComposite operator="in" in2="blur"/>
      <feComposite in="SourceGraphic"/>
    </filter>
  </defs>
  <g transform="matrix(1, 0, 0, 1, 0, 0)" filter="url(#hexagon-fill-svgrepo-com)">
    <path id="hexagon-fill-svgrepo-com-2" data-name="hexagon-fill-svgrepo-com" d="M31.521.864a6.976,6.976,0,0,1,6.724,0L66.151,16.212a6.977,6.977,0,0,1,3.615,6.113V52.446a6.977,6.977,0,0,1-3.615,6.113L38.245,73.907a6.976,6.976,0,0,1-6.724,0L3.614,58.559A6.977,6.977,0,0,1,0,52.446V22.325a6.977,6.977,0,0,1,3.614-6.113Z" transform="translate(94.27 9.5) rotate(90)" fill="#fff"/>
  </g>
</svg>
