<svg xmlns="http://www.w3.org/2000/svg" width="110" height="120" viewBox="0 0 140.285 121.654">
  <g id="Polygon_153" data-name="Polygon 153" fill="none" opacity="0.84">
    <path d="M99.437,0A10,10,0,0,1,108.1,5.005l29.306,50.827a10,10,0,0,1,0,9.99L108.1,116.649a10,10,0,0,1-8.663,5.005H40.849a10,10,0,0,1-8.663-5.005L2.88,65.822a10,10,0,0,1,0-9.99L32.186,5.005A10,10,0,0,1,40.849,0Z" stroke="none"/>
    <path d="M 40.84870910644531 1.000007629394531 C 37.64145660400391 1.000007629394531 34.65386962890625 2.726043701171875 33.05185699462891 5.5045166015625 L 3.746292114257812 56.33136749267578 C 2.147491455078125 59.10427856445312 2.147491455078125 62.54942321777344 3.746292114257812 65.32232666015625 L 33.05185699462891 116.1492004394531 C 34.65386962890625 118.9276733398438 37.64143371582031 120.6537094116211 40.84869384765625 120.6537094116211 L 99.43659973144531 120.6537094116211 C 102.6438598632812 120.6537094116211 105.6314392089844 118.9276733398438 107.2334594726562 116.1492004394531 L 136.5390167236328 65.32232666015625 C 138.1378021240234 62.54940414428711 138.1378021240234 59.10429382324219 136.5390167236328 56.33138275146484 L 107.2334594726562 5.5045166015625 C 105.6314392089844 2.726043701171875 102.6438598632812 1.000007629394531 99.43659973144531 1.000007629394531 L 40.84870910644531 1.000007629394531 M 40.84870910644531 7.62939453125e-06 L 99.43659973144531 7.62939453125e-06 C 103.0113220214844 7.62939453125e-06 106.3142013549805 1.908187866210938 108.0997619628906 5.005020141601562 L 137.4053344726562 55.83189392089844 C 139.1877746582031 58.92333221435547 139.1877746582031 62.73036575317383 137.4053344726562 65.82182312011719 L 108.0997619628906 116.6486968994141 C 106.3142013549805 119.7455291748047 103.0113220214844 121.6537094116211 99.43659973144531 121.6537094116211 L 40.84869384765625 121.6537094116211 C 37.27396392822266 121.6537094116211 33.97110748291016 119.7455291748047 32.185546875 116.6486968994141 L 2.879974365234375 65.82182312011719 C 1.097503662109375 62.73036575317383 1.097503662109375 58.92333221435547 2.879974365234375 55.83187866210938 L 32.185546875 5.005020141601562 C 33.97110748291016 1.908187866210938 37.27397918701172 7.62939453125e-06 40.84870910644531 7.62939453125e-06 Z" stroke="none" fill="#fff"/>
  </g>
</svg>
