<svg xmlns="http://www.w3.org/2000/svg" width="44.908" height="44.908" viewBox="0 0 44.908 44.908">
  <g id="hospital-svgrepo-com" transform="translate(-16 -16)">
    <rect id="Rectangle_15829" data-name="Rectangle 15829" width="2.954" height="2.954" transform="translate(29.593 43.18)" fill="#fff"/>
    <rect id="Rectangle_15830" data-name="Rectangle 15830" width="3.545" height="2.954" transform="translate(36.682 43.18)" fill="#fff"/>
    <rect id="Rectangle_15831" data-name="Rectangle 15831" width="2.954" height="2.954" transform="translate(44.362 43.18)" fill="#fff"/>
    <path id="Path_21921" data-name="Path 21921" d="M55.669,57.914V22.736H48.933V16H27.976v6.736H21.239V57.914H16v2.994H60.908V57.914Zm-24.7-38.92H45.939V33.963H30.969Zm21.706,38.92H39.951V51.927H36.957v5.988H24.233V25.73h3.742V36.957H48.933V25.73h3.742Z" fill="#fff"/>
    <path id="Path_21922" data-name="Path 21922" d="M213.988,80h-2.994v2.994H208v2.994h2.994v2.994h2.994V85.988h2.994V82.994h-2.994Z" transform="translate(-174.037 -58.012)" fill="#fff"/>
  </g>
</svg>
