<svg xmlns="http://www.w3.org/2000/svg" width="52.304" height="36.18" viewBox="0 0 52.304 36.18">
  <path id="Union_130" data-name="Union 130" d="M42.145,35.57a2.314,2.314,0,0,1-.158-3.306,20.835,20.835,0,0,0,0-28.346L45.5.765a25.468,25.468,0,0,1,0,34.649,2.4,2.4,0,0,1-3.359.156ZM6.8,35.414A25.462,25.462,0,0,1,6.8.765L10.32,3.917a20.83,20.83,0,0,0,0,28.346,2.316,2.316,0,0,1-.16,3.306A2.4,2.4,0,0,1,6.8,35.414ZM33.348,27.7a2.314,2.314,0,0,1-.158-3.306,9.257,9.257,0,0,0,0-12.6l3.518-3.152a13.89,13.89,0,0,1,0,18.9,2.4,2.4,0,0,1-3.359.156ZM15.6,27.54a13.9,13.9,0,0,1,0-18.9l3.518,3.152a9.263,9.263,0,0,0,0,12.6,2.314,2.314,0,0,1-.158,3.306A2.4,2.4,0,0,1,15.6,27.54Zm8.178-9.427V18.09h4.755v.023a2.378,2.378,0,0,1-4.755,0Zm0-.023a2.378,2.378,0,0,1,4.755,0Zm9.573-9.606a2.4,2.4,0,0,1,3.359.156L33.19,11.792A2.317,2.317,0,0,1,33.348,8.483ZM15.6,8.639a2.4,2.4,0,0,1,3.359-.156,2.317,2.317,0,0,1,.158,3.308ZM42.145.609A2.4,2.4,0,0,1,45.5.765L41.986,3.917A2.317,2.317,0,0,1,42.145.609ZM6.8.765A2.4,2.4,0,0,1,10.16.609a2.319,2.319,0,0,1,.16,3.308Z" transform="translate(0 0)" fill="#fff"/>
</svg>
