<svg xmlns="http://www.w3.org/2000/svg" width="64.7" height="32.327" viewBox="0 0 64.7 32.327">
  <path id="Path_21952" data-name="Path 21952" d="M-25.108-35a3.6,3.6,0,0,1,2.171,1.27,3.582,3.582,0,0,1,.877,2.378V-6.275a3.5,3.5,0,0,1-.877,2.355,3.64,3.64,0,0,1-2.171,1.247h-8.544A3.64,3.64,0,0,1-35.823-3.92,3.5,3.5,0,0,1-36.7-6.275V-31.352a3.582,3.582,0,0,1,.877-2.378A3.6,3.6,0,0,1-33.652-35Zm-2.032,8.49v-3.41h-4.48V-7.753h4.48V-26.51Zm22.767-4.8v8.821a3.5,3.5,0,0,1-1.085,2.563,3.558,3.558,0,0,1-2.609,1.085h-5.911V-2.673h-5.08V-35H-8.068a3.511,3.511,0,0,1,2.448.924,3.682,3.682,0,0,1,1.2,2.309Zm-5.08,1.385h-4.526v6h4.526ZM3.755-35h8.128v5.08H3.755v6.05H10.22v5.08H3.755V-7.753h8.128v5.08H-1.325V-35ZM19.964-7.753H28v5.08H14.885V-35h5.08Z" transform="translate(36.7 35)" fill="#fff"/>
</svg>
