<svg xmlns="http://www.w3.org/2000/svg" xmlns:xlink="http://www.w3.org/1999/xlink" width="359.68" height="133.739" viewBox="0 0 359.68 133.739">
  <defs>
    <filter id="Union_94" x="0" y="0" width="359.68" height="133.739" filterUnits="userSpaceOnUse">
      <feOffset dy="10" input="SourceAlpha"/>
      <feGaussianBlur stdDeviation="6.5" result="blur"/>
      <feFlood flood-opacity="0.2"/>
      <feComposite operator="in" in2="blur"/>
      <feComposite in="SourceGraphic"/>
    </filter>
  </defs>
  <g transform="matrix(1, 0, 0, 1, 0, 0)" filter="url(#Union_94)">
    <path id="Union_94-2" data-name="Union 94" d="M-3083.874,10294.515l-18.108-32.789a8.171,8.171,0,0,1,0-7.9l18.108-32.789a8.231,8.231,0,0,1,7.211-4.244l123.73-.095,5.4-9.311a2.752,2.752,0,0,1,4.756,0l5.394,9.3,126.565-.1a8.233,8.233,0,0,1,7.211,4.246l18.108,32.789a8.171,8.171,0,0,1,0,7.9l-18.108,32.787a8.229,8.229,0,0,1-7.211,4.246l-265.844.2A8.233,8.233,0,0,1-3083.874,10294.515Z" transform="translate(3123.58 -10195.52)" fill="none" stroke="#25A0D3" stroke-width="2"/>
  </g>
</svg>
