<svg xmlns="http://www.w3.org/2000/svg" width="39.514" height="38.645" viewBox="0 0 39.514 38.645">
  <g id="Group_2920" data-name="Group 2920" transform="translate(7506.54 9211.627)">
    <path id="Path_22038" data-name="Path 22038" d="M1890.858-8835.337a21.78,21.78,0,0,1,11.014,3.158c5.121,3.294,9.471,10.011,9.471,10.011s4.522,5.741,9.249,8.473a19.212,19.212,0,0,0,9.656,2.456" transform="translate(-9397.357 -374.784)" fill="none" stroke="#fff" stroke-width="3"/>
    <path id="Path_22040" data-name="Path 22040" d="M1890.858-8835.337a21.78,21.78,0,0,1,11.014,3.158c5.121,3.294,9.471,10.011,9.471,10.011s4.522,5.741,9.249,8.473a19.212,19.212,0,0,0,9.656,2.456" transform="translate(-9397.357 -363.27)" fill="none" stroke="#fff" stroke-width="3"/>
    <path id="Path_22039" data-name="Path 22039" d="M1930.2-8819.784a27.063,27.063,0,0,0-11.8,2.262c-5.618,2.656-10.67,8.354-10.67,8.354a20.188,20.188,0,0,1-7,4.9,33.967,33.967,0,0,1-9.872,1.839" transform="translate(-9397.357 -384.127)" fill="none" stroke="#fff" stroke-width="3"/>
  </g>
</svg>
