<svg xmlns="http://www.w3.org/2000/svg" width="46.395" height="34.797" viewBox="0 0 46.395 34.797">
  <path id="Path_95" data-name="Path 95" d="M23.945,28.1h-5.2l3.323-3.323a1.5,1.5,0,0,0,.316-.473,1.45,1.45,0,0,0,.11-.554V13.6h1.45a1.45,1.45,0,1,0,0-2.9H21.527L11.865,3.45A7.307,7.307,0,0,0,7.516,2H6.051a7.206,7.206,0,0,0-1.682.217A1.424,1.424,0,0,0,3.648,2h-8a10.213,10.213,0,0,0-7.174,2.972L-14.351,7.8h-5.2A1.45,1.45,0,0,0-21,9.249a1.45,1.45,0,0,0,1.45,1.45h4.35V25.2h-4.35A1.45,1.45,0,0,0-21,26.648a1.45,1.45,0,0,0,1.45,1.45h5.2l5.727,5.727A10.213,10.213,0,0,0-1.45,36.8h7.3a10.213,10.213,0,0,0,7.174-2.972L15.847,31h8.1a1.45,1.45,0,1,0,0-2.9ZM7.513,4.9a4.35,4.35,0,0,1,2.61.87l9.473,7.1v9.357a16.076,16.076,0,0,1-8.119-3.123L4.517,13.889a1.453,1.453,0,0,0-1.9.133L.571,16.075a3.947,3.947,0,0,1-5.446,0A1.45,1.45,0,0,1-5.3,15.049a1.45,1.45,0,0,1,.426-1.026l7.85-7.85A4.381,4.381,0,0,1,6.048,4.9Zm3.456,26.875A7.293,7.293,0,0,1,5.846,33.9h-7.3a7.293,7.293,0,0,1-5.124-2.123L-12.3,26.047V9.85l2.827-2.827A7.293,7.293,0,0,1-4.35,4.9h4.5l-7.072,7.072a4.35,4.35,0,0,0,0,6.153,6.913,6.913,0,0,0,9.546,0l1.16-1.16,5.956,4.463a18.944,18.944,0,0,0,8.1,3.48l-3.616,3.616h0Z" transform="translate(21 -2)" fill="#fff"/>
</svg>
