<svg xmlns="http://www.w3.org/2000/svg" xmlns:xlink="http://www.w3.org/1999/xlink" width="80" height="81.14" viewBox="0 0 84.108 81.14">
  <defs>
    <filter id="hexagon-fill-svgrepo-com" x="0" y="0" width="84.108" height="81.14" filterUnits="userSpaceOnUse">
      <feOffset dy="10" input="SourceAlpha"/>
      <feGaussianBlur stdDeviation="6.5" result="blur"/>
      <feFlood flood-opacity="0.2"/>
      <feComposite operator="in" in2="blur"/>
      <feComposite in="SourceGraphic"/>
    </filter>
  </defs>
  <g transform="matrix(1, 0, 0, 1, 0, 0)" filter="url(#hexagon-fill-svgrepo-com)">
    <path id="hexagon-fill-svgrepo-com-2" data-name="hexagon-fill-svgrepo-com" d="M18.136.5A4.014,4.014,0,0,1,22,.5L38.061,9.328a4.014,4.014,0,0,1,2.08,3.517V30.176a4.014,4.014,0,0,1-2.08,3.517L22,42.524a4.014,4.014,0,0,1-3.869,0L2.08,33.693A4.014,4.014,0,0,1,0,30.176V12.845A4.014,4.014,0,0,1,2.08,9.328Z" transform="translate(63.56 10.5) rotate(90)" fill="none" stroke="#6d6d6d" stroke-width="2" opacity="0.2"/>
  </g>
</svg>
